<svg width="60" height="60" viewBox="0 0 60 60" fill="none" xmlns="http://www.w3.org/2000/svg">
<path d="M57.1999 45.0223L35.3385 7.05513C34.7922 6.12496 34.0123 5.3537 33.0761 4.81781C32.1399 4.28192 31.08 4 30.0012 4C28.9225 4 27.8626 4.28192 26.9264 4.81781C25.9902 5.3537 25.2103 6.12496 24.664 7.05513L2.80264 45.0223C2.27701 45.922 2 46.9452 2 47.9872C2 49.0292 2.27701 50.0525 2.80264 50.9522C3.34194 51.888 4.1205 52.6635 5.05843 53.199C5.99636 53.7345 7.05988 54.0109 8.13987 53.9997H51.8626C52.9418 54.01 54.0043 53.7332 54.9412 53.1977C55.8782 52.6622 56.656 51.8873 57.1949 50.9522C57.7212 50.0529 57.9991 49.0299 58 47.9879C58.0009 46.9459 57.7247 45.9224 57.1999 45.0223ZM28.0014 24C28.0014 23.4695 28.2121 22.9608 28.5871 22.5858C28.9622 22.2107 29.4708 22 30.0012 22C30.5317 22 31.0403 22.2107 31.4154 22.5858C31.7904 22.9608 32.0011 23.4695 32.0011 24V33.9999C32.0011 34.5303 31.7904 35.039 31.4154 35.4141C31.0403 35.7891 30.5317 35.9998 30.0012 35.9998C29.4708 35.9998 28.9622 35.7891 28.5871 35.4141C28.2121 35.039 28.0014 34.5303 28.0014 33.9999V24ZM30.0012 45.9998C29.4079 45.9998 28.8279 45.8238 28.3346 45.4942C27.8413 45.1645 27.4568 44.696 27.2298 44.1478C27.0027 43.5996 26.9433 42.9965 27.059 42.4145C27.1748 41.8326 27.4605 41.298 27.88 40.8785C28.2996 40.4589 28.8341 40.1732 29.416 40.0575C29.9979 39.9417 30.6011 40.0011 31.1492 40.2282C31.6974 40.4552 32.1659 40.8397 32.4955 41.3331C32.8252 41.8264 33.0011 42.4064 33.0011 42.9998C33.0011 43.7954 32.685 44.5585 32.1225 45.1211C31.5599 45.6837 30.7969 45.9998 30.0012 45.9998Z" fill="#F74440"/>
</svg>
