<svg width="159" height="169" viewBox="0 0 129 139" fill="none" xmlns="http://www.w3.org/2000/svg">
<path d="M23.24 120.092C23.24 121.604 22.96 122.939 22.4 124.096C21.84 125.235 21.0747 126.187 20.104 126.952C19.1333 127.736 18.004 128.324 16.716 128.716C15.4467 129.108 14.084 129.304 12.628 129.304C11.0973 129.304 9.632 129.061 8.232 128.576C6.85067 128.109 5.628 127.4 4.564 126.448C3.5 125.515 2.65067 124.339 2.016 122.92C1.4 121.501 1.092 119.849 1.092 117.964C1.092 116.079 1.4 114.427 2.016 113.008C2.65067 111.589 3.5 110.413 4.564 109.48C5.628 108.528 6.85067 107.819 8.232 107.352C9.632 106.867 11.0973 106.624 12.628 106.624C14.6067 106.624 16.4173 107.016 18.06 107.8C19.7027 108.565 21.084 109.695 22.204 111.188L21.056 112L19.768 113.4L18.928 114.744C18.144 113.699 17.248 112.924 16.24 112.42C15.232 111.916 14.028 111.664 12.628 111.664C11.788 111.664 11.0133 111.785 10.304 112.028C9.59467 112.271 8.97867 112.653 8.456 113.176C7.952 113.68 7.55067 114.333 7.252 115.136C6.95333 115.92 6.804 116.863 6.804 117.964C6.804 119.065 6.95333 120.017 7.252 120.82C7.55067 121.604 7.952 122.257 8.456 122.78C8.97867 123.284 9.59467 123.657 10.304 123.9C11.0133 124.143 11.788 124.264 12.628 124.264C13.3187 124.264 13.9533 124.208 14.532 124.096C15.1293 123.984 15.6427 123.807 16.072 123.564C16.5013 123.303 16.8373 122.967 17.08 122.556C17.3413 122.145 17.4907 121.641 17.528 121.044H14.196L12.516 121.324C12.4973 120.801 12.4693 120.325 12.432 119.896C12.3947 119.448 12.348 119.019 12.292 118.608C12.236 118.179 12.152 117.749 12.04 117.32C11.9467 116.891 11.8253 116.405 11.676 115.864L14.476 116.144H23.24V120.092ZM37.6698 119.196C37.2965 118.655 36.8952 118.291 36.4658 118.104C36.0365 117.917 35.5512 117.824 35.0098 117.824C33.9085 117.824 33.0125 118.123 32.3218 118.72C31.6498 119.317 31.3138 120.185 31.3138 121.324V129.024L29.3538 128.744H27.7018L25.7418 129.024V113.064L27.7018 113.344H29.3538L31.3138 113.064V114.688C31.8552 114.053 32.5458 113.577 33.3858 113.26C34.2258 112.943 35.1125 112.784 36.0458 112.784C37.0352 112.784 37.9592 113.008 38.8178 113.456C39.6765 113.904 40.4045 114.632 41.0018 115.64L39.6858 116.424L38.4258 117.796L37.6698 119.196ZM46.9746 123.2C47.1613 123.592 47.4039 123.919 47.7026 124.18C48.0013 124.423 48.3373 124.619 48.7106 124.768C49.1026 124.899 49.5226 124.992 49.9706 125.048C50.4186 125.085 50.8853 125.104 51.3706 125.104C52.2666 125.104 53.2373 124.992 54.2826 124.768C55.3466 124.544 56.3266 124.217 57.2226 123.788V125.216L57.7546 126.532L58.7906 127.428C58.2679 127.727 57.6893 127.988 57.0546 128.212C56.4199 128.455 55.7666 128.651 55.0946 128.8C54.4226 128.968 53.7413 129.089 53.0506 129.164C52.3599 129.257 51.6973 129.304 51.0626 129.304C49.7746 129.304 48.5333 129.145 47.3386 128.828C46.1626 128.529 45.1079 128.053 44.1746 127.4C43.2599 126.747 42.5226 125.897 41.9626 124.852C41.4213 123.807 41.1506 122.537 41.1506 121.044C41.1506 119.681 41.3746 118.487 41.8226 117.46C42.2893 116.433 42.9146 115.575 43.6986 114.884C44.5013 114.193 45.4439 113.671 46.5266 113.316C47.6279 112.961 48.8226 112.784 50.1106 112.784C51.1186 112.784 52.1359 112.915 53.1626 113.176C54.2079 113.437 55.1413 113.885 55.9626 114.52C56.8026 115.136 57.4839 115.976 58.0066 117.04C58.5293 118.104 58.7906 119.439 58.7906 121.044C58.3613 121.343 57.9506 121.669 57.5586 122.024C57.1666 122.379 56.8119 122.771 56.4946 123.2H46.9746ZM50.2786 116.984C49.4386 116.984 48.7386 117.161 48.1786 117.516C47.6373 117.871 47.2266 118.365 46.9466 119H53.0226C52.9293 118.365 52.6213 117.871 52.0986 117.516C51.5759 117.161 50.9693 116.984 50.2786 116.984ZM66.4746 124.572V129.024L64.5146 128.744H63.0026L61.0426 129.024V106.904L63.0026 107.184H64.5146L66.4746 106.904V117.376L71.2346 113.064L72.9146 113.344H75.5186L77.7586 113.064L69.1346 120.932L78.3186 129.024L76.0786 128.744H73.1946L71.5146 129.024L66.4746 124.572ZM78.9801 114.184L80.9401 114.464H82.7321L84.6921 114.184V129.024L82.7321 128.744H80.9401L78.9801 129.024V114.184ZM78.7001 109.676C78.7001 108.761 78.9895 108.024 79.5681 107.464C80.1655 106.904 80.9215 106.624 81.8361 106.624C82.7508 106.624 83.4975 106.904 84.0761 107.464C84.6735 108.024 84.9721 108.761 84.9721 109.676C84.9721 110.591 84.6735 111.328 84.0761 111.888C83.4975 112.448 82.7508 112.728 81.8361 112.728C80.9215 112.728 80.1655 112.448 79.5681 111.888C78.9895 111.328 78.7001 110.591 78.7001 109.676ZM87.9489 113.064L89.9089 113.344H91.5609L93.5209 113.064V114.688C94.0622 114.053 94.7529 113.577 95.5929 113.26C96.4329 112.943 97.3195 112.784 98.2529 112.784C99.3729 112.784 100.4 112.952 101.333 113.288C102.266 113.624 103.069 114.137 103.741 114.828C104.413 115.5 104.936 116.359 105.309 117.404C105.701 118.449 105.897 119.681 105.897 121.1V129.024L103.937 128.744H102.285L100.325 129.024V121.044C100.325 119.905 100.045 119.084 99.4849 118.58C98.9249 118.076 98.1689 117.824 97.2169 117.824C96.1155 117.824 95.2195 118.123 94.5289 118.72C93.8569 119.317 93.5209 120.185 93.5209 121.324V129.024L91.5609 128.744H89.9089L87.9489 129.024V113.064ZM121.045 127.204C120.429 127.708 119.729 128.091 118.945 128.352C118.18 128.613 117.368 128.744 116.509 128.744C115.501 128.744 114.512 128.576 113.541 128.24C112.57 127.923 111.702 127.428 110.937 126.756C110.172 126.103 109.556 125.281 109.089 124.292C108.622 123.284 108.389 122.108 108.389 120.764C108.389 119.42 108.622 118.253 109.089 117.264C109.556 116.256 110.172 115.425 110.937 114.772C111.702 114.1 112.57 113.605 113.541 113.288C114.512 112.952 115.501 112.784 116.509 112.784C117.368 112.784 118.18 112.915 118.945 113.176C119.729 113.437 120.429 113.82 121.045 114.324V113.064L123.005 113.344H124.657L126.617 113.064V128.1C126.617 129.388 126.346 130.508 125.805 131.46C125.282 132.412 124.582 133.205 123.705 133.84C122.846 134.475 121.848 134.951 120.709 135.268C119.589 135.585 118.441 135.744 117.265 135.744C115.716 135.744 114.204 135.492 112.729 134.988C111.254 134.484 110.022 133.784 109.033 132.888L109.985 131.796L110.909 130.172L111.441 128.716C112.094 129.388 112.953 129.883 114.017 130.2C115.1 130.536 116.164 130.704 117.209 130.704C118.404 130.704 119.337 130.48 120.009 130.032C120.7 129.603 121.045 128.959 121.045 128.1V127.204ZM113.961 120.764C113.961 121.66 114.297 122.379 114.969 122.92C115.641 123.443 116.49 123.704 117.517 123.704C118.002 123.704 118.46 123.639 118.889 123.508C119.318 123.377 119.692 123.191 120.009 122.948C120.326 122.687 120.578 122.379 120.765 122.024C120.952 121.651 121.045 121.231 121.045 120.764C121.045 120.297 120.952 119.887 120.765 119.532C120.578 119.159 120.326 118.851 120.009 118.608C119.692 118.347 119.318 118.151 118.889 118.02C118.46 117.889 118.002 117.824 117.517 117.824C116.49 117.824 115.641 118.095 114.969 118.636C114.297 119.159 113.961 119.868 113.961 120.764Z" fill="#0D5061"/>
<path fill-rule="evenodd" clip-rule="evenodd" d="M39.6005 78C37.7212 78 36.8795 75.6428 38.3337 74.4524L49.8809 65L52.0742 68.3485L45.2504 74L60.2807 74L37.7399 39.6687L37.6674 39.4932C36.2363 36.028 35.4998 32.3143 35.4998 28.5641C35.4998 24.8138 36.2364 21.1001 37.6675 17.635C39.0986 14.1698 41.1963 11.021 43.8413 8.36829C46.4862 5.71559 49.6265 3.61104 53.0831 2.17509C56.5397 0.73914 60.2446 -1.07115e-05 63.9863 -1.03844e-05C67.728 -1.00573e-05 71.433 0.739149 74.8895 2.17509C78.3461 3.61104 81.4864 5.7156 84.1314 8.3683C86.7763 11.021 88.8741 14.1699 90.3052 17.635C91.7363 21.1001 92.4728 24.8138 92.4728 28.5641C92.4728 32.3143 91.7363 36.028 90.3052 39.4932C88.8973 42.902 87.1534 45.7865 84.1438 48.1601C83.4133 48.7362 82.6257 49.38 81.8043 50.0515C79.8077 51.6836 77.6115 53.4789 75.5502 54.862L69.7068 59.2574C67.8785 60.6326 65.2714 60.1971 63.9894 58.3023L47.953 34.6005C46.9885 33.1749 47.2218 31.2566 48.4999 30.1037C49.7911 28.8086 50.9332 27.5566 53.6733 26.0554C56.4192 24.551 59.9362 23.5201 63.6745 24.7699C66.5567 25.7334 68.9748 27.9635 70.8215 30.1037C71.9985 31.4677 73.0257 32.8957 73.8556 34.1129L77.3235 31.72C78.2997 31.0465 79.6371 31.2927 80.3094 32.2698C80.9709 33.2312 80.7425 34.5452 79.7953 35.227L74.8701 38.7724C73.8669 39.4946 72.4645 39.2392 71.7802 38.2097C71.686 38.0681 71.5884 37.9205 71.4872 37.7676C70.5466 36.3458 69.3044 34.4684 67.793 32.7168C66.0924 30.7459 64.2537 29.1811 62.4063 28.5635C60.1846 27.8208 57.9299 28.323 55.7699 29.4692L71.5345 52.8773L73.2339 51.599L73.2801 51.5682C75.1882 50.2924 77.1459 48.6915 79.0917 47.1003C79.9541 46.395 80.8143 45.6917 81.6667 45.0194C83.9525 43.2166 85.3538 41.0032 86.6081 37.9662C87.8391 34.9856 88.4728 31.7907 88.4728 28.5641C88.4728 25.3375 87.8391 22.1426 86.6081 19.1619C85.3771 16.1812 83.5729 13.4733 81.2988 11.1926C79.0248 8.91187 76.3254 7.10302 73.355 5.86903C70.3846 4.63504 67.2011 3.99999 63.9863 3.99999C60.7715 3.99999 57.5881 4.63504 54.6177 5.86903C51.6472 7.10302 48.9479 8.91186 46.6738 11.1926C44.3998 13.4733 42.5956 16.1812 41.3646 19.1619C40.1335 22.1426 39.4998 25.3375 39.4998 28.5641C39.4998 31.7286 40.1094 34.8625 41.2941 37.7939L65.0658 74L76.3614 74L88.5 74L84 68L78.9999 71.5L76.5 71.5C75.539 71.5 75.1312 70.2766 75.9 69.7L77.5 68.5L76.5 67.5L70.6003 72L67.9276 72C66.9812 72 66.5643 70.8071 67.3048 70.2176L75.6028 63.6121C76.3986 62.9786 77.5433 63.0434 78.2626 63.7627L80.5 66L82.4956 64.0831C83.3682 63.245 84.7793 63.3675 85.4944 64.3435L93.1687 74.818C94.1366 76.1391 93.1931 78 91.5553 78L39.6005 78ZM68.3335 55.2851L52.4724 31.7337C52.1103 32.0362 51.7687 32.3384 51.4503 32.6314L67.3023 56.0608L68.3335 55.2851Z" fill="#10BF8F"/>
</svg>
