<svg width="58" height="57" viewBox="0 0 58 57" fill="none" xmlns="http://www.w3.org/2000/svg">
<path fill-rule="evenodd" clip-rule="evenodd" d="M25.5 57C43.4493 57 58 42.4493 58 24.5C58 22.0443 57.7276 19.6521 57.2115 17.3522C52.44 7.10398 42.0496 0 30 0C13.4315 0 0 13.4315 0 30C0 39.9225 4.8172 48.7198 12.2405 54.181C16.2896 55.9926 20.7772 57 25.5 57Z" fill="#A9B0B5"/>
<path d="M25 25C24.0667 27.5 21.0333 29.5 18 30" stroke="#555A5C" stroke-width="3" stroke-linecap="round"/>
<path d="M35 25C35.9333 27.5 38.9667 29.5 42 30" stroke="#555A5C" stroke-width="3" stroke-linecap="round"/>
<path d="M22.7056 38.3688C22.0835 39.3883 21.8086 40.5126 22.1448 41.4314C22.4247 42.1963 23.3228 43.2076 24.6695 42.9626C26.0162 42.7176 28.3167 42.3333 29.9998 42.3333C31.683 42.3333 33.9838 42.7176 35.3305 42.9626C36.6772 43.2076 37.5753 42.1963 37.8552 41.4314C38.1914 40.5126 37.9165 39.3883 37.2944 38.3688C36.7337 37.45 34.2082 35 29.9998 35C25.7915 35 23.2663 37.45 22.7056 38.3688Z" stroke="#555A5C" stroke-width="3" stroke-linecap="round"/>
</svg>
