<svg width="80" height="80" viewBox="0 0 80 80" fill="none" xmlns="http://www.w3.org/2000/svg">
<g opacity="0.5">
<circle cx="40" cy="40" r="30" fill="#868C90"/>
<path fill-rule="evenodd" clip-rule="evenodd" d="M35.5 67C53.4493 67 68 52.4493 68 34.5C68 32.0443 67.7276 29.6521 67.2115 27.3522C62.44 17.104 52.0496 10 40 10C23.4315 10 10 23.4315 10 40C10 49.9225 14.8172 58.7198 22.2405 64.181C26.2896 65.9926 30.7772 67 35.5 67Z" fill="#A9B0B5"/>
<path d="M39.5002 48L39.5 41.5686M39.5002 48C36.4938 48 34.1417 47.2741 32.5037 46.4644M39.5002 48C42.2152 48 44.3964 47.4081 46 46.697M39.5 41.5686C38.1214 41.5686 36.7487 41.2139 35.5 40.8415M39.5 41.5686C40.8786 41.5686 42.2513 41.2139 43.5 40.8415M35.5 40.8415C34.3709 40.5048 33.343 40.1537 32.5037 40.0374C30.7361 39.7924 29.5574 40.8037 29.19 41.5686C28.7487 42.4874 29.1096 43.6117 29.9262 44.6312C30.2615 45.0499 31.1324 45.7865 32.5037 46.4644M35.5 40.8415L32.5037 46.4644M43.5 40.8415C44.6291 40.5048 45.657 40.1537 46.4963 40.0374C48.2639 39.7924 49.4426 40.8037 49.81 41.5686C50.2513 42.4874 49.8904 43.6117 49.0738 44.6312C48.6997 45.0984 47.6589 45.9614 46 46.697M43.5 40.8415L46 46.697" stroke="#555A5C" stroke-width="3" stroke-linecap="round"/>
<path d="M27 34.6508C27 33.1508 28 31.6509 30 31.1508C31.7113 30.7228 34 31.1509 35 33.1509" stroke="#555A5C" stroke-width="3" stroke-linecap="round"/>
<path d="M52 34.6508C52 33.1508 51 31.6509 49 31.1508C47.2887 30.7228 45 31.1509 44 33.1509" stroke="#555A5C" stroke-width="3" stroke-linecap="round"/>
</g>
</svg>
