<svg width="44" height="44" viewBox="0 0 44 44" fill="none" xmlns="http://www.w3.org/2000/svg">
<path d="M19.9125 38.6655C20.2298 38.883 20.6101 39 21 39C21.3899 39 21.7702 38.883 22.0875 38.6655C22.6575 38.2785 36.0542 28.9922 35.9998 17.4001C35.9998 9.46025 29.2705 3 21 3C12.7295 3 6.00017 9.46025 6.00017 17.3911C5.94579 28.9922 19.3425 38.2785 19.9125 38.6655Z" fill="white"/>
<path d="M20.0575 36.7027C20.3325 36.896 20.662 37 21 37C21.338 37 21.6675 36.896 21.9425 36.7027C22.4365 36.3587 34.047 28.1042 33.9999 17.8001C33.9999 10.7424 28.1678 5 21 5C13.8322 5 8.00014 10.7424 8.00014 17.7921C7.95302 28.1042 19.5635 36.3587 20.0575 36.7027Z" fill="#0D615C"/>
<path d="M10.7788 23V15.2227H15.8384V16.3936H12.1753V18.5205H15.5698V19.6914H12.1753V21.8184H15.8599V23H10.7788ZM23.5728 15.2227V23H22.3267L18.6421 17.6826H18.5776V23H17.1812V15.2227H18.4487L22.1118 20.54H22.187V15.2227H23.5728ZM27.6548 23H25.0122V15.2227H27.6978C30.0181 15.2227 31.4253 16.6836 31.4253 19.1006C31.4253 21.5283 30.0181 23 27.6548 23ZM26.4087 21.7861H27.5796C29.2017 21.7861 30.0288 20.8945 30.0288 19.1006C30.0288 17.3174 29.2017 16.4365 27.6226 16.4365H26.4087V21.7861Z" fill="white"/>
</svg>
