<svg width="41" height="40" viewBox="0 0 41 40" fill="none" xmlns="http://www.w3.org/2000/svg">
<path d="M18.2757 32.0844L10.3713 24.1799L8.21872 26.3325C8.1161 26.4352 8.15351 26.6095 8.28921 26.661L9.48948 27.1162C9.75706 27.2177 9.96833 27.429 10.0698 27.6966L10.4814 28.7816C10.5793 29.0397 10.7795 29.2458 11.0346 29.3512L12.1155 29.7977C12.3613 29.8992 12.5565 30.0944 12.658 30.3402L13.111 31.4369C13.2125 31.6827 13.4078 31.8779 13.6535 31.9794L14.7503 32.4325C14.9961 32.534 15.1913 32.7292 15.2928 32.975L15.79 34.1787C15.8445 34.3105 16.0154 34.3446 16.1163 34.2438L18.2757 32.0844Z" fill="#A9B0B5"/>
<path d="M26.1813 8.37122L34.0857 16.2756L36.2383 14.123C36.3409 14.0204 36.3035 13.8461 36.1678 13.7946L34.9675 13.3393C34.7 13.2378 34.4887 13.0266 34.3872 12.759L33.9756 11.674C33.8778 11.4159 33.6775 11.2097 33.4224 11.1044L32.3415 10.6579C32.0958 10.5564 31.9005 10.3612 31.799 10.1154L31.346 9.01862C31.2445 8.77285 31.0493 8.57763 30.8035 8.47612L29.7067 8.0231C29.461 7.92159 29.2657 7.72637 29.1642 7.4806L28.667 6.27684C28.6126 6.14502 28.4416 6.11093 28.3407 6.21178L26.1813 8.37122Z" fill="#A9B0B5"/>
<path fill-rule="evenodd" clip-rule="evenodd" d="M24.8635 9.68904L11.6895 22.863L19.5939 30.7674L32.7679 17.5934L24.8635 9.68904ZM18.8862 22.1559C18.4956 22.5465 18.4956 23.1796 18.8862 23.5701C19.2767 23.9607 19.9099 23.9607 20.3004 23.5701L20.3107 23.5598L20.321 23.5495L20.3314 23.5391L20.3419 23.5286L20.3524 23.5182L20.3629 23.5077L20.3734 23.4971L20.384 23.4865L20.3947 23.4759L20.4053 23.4652L20.4161 23.4545L20.4268 23.4437L20.4376 23.4329L20.4484 23.4221L20.4593 23.4112L20.4702 23.4003L20.4812 23.3893L20.4922 23.3784L20.5032 23.3673L20.5143 23.3563L20.5254 23.3452L20.5365 23.334L20.5477 23.3229L20.5589 23.3117L20.5701 23.3004L20.5814 23.2891L20.5927 23.2778L20.6041 23.2665L20.6155 23.2551L20.6269 23.2436L20.6383 23.2322L20.6498 23.2207L20.6614 23.2092L20.6729 23.1976L20.6845 23.186L20.6961 23.1744L20.7078 23.1627L20.7195 23.151L20.7312 23.1393L20.743 23.1275L20.7548 23.1157L20.7666 23.1039L20.7785 23.0921L20.7903 23.0802L20.8023 23.0683L20.8142 23.0563L20.8262 23.0443L20.8382 23.0323L20.8503 23.0203L20.8623 23.0082L20.8744 22.9961L20.8866 22.9839L20.8987 22.9718L20.9109 22.9596L20.9232 22.9474L20.9354 22.9351L20.9477 22.9228L20.96 22.9105L20.9724 22.8982L20.9847 22.8858L20.9971 22.8734L21.0095 22.861L21.022 22.8485L21.0345 22.8361L21.047 22.8236L21.0595 22.811L21.0721 22.7985L21.0846 22.7859L21.0973 22.7733L21.1099 22.7606L21.1226 22.748L21.1352 22.7353L21.148 22.7226L21.1607 22.7098L21.1735 22.6971L21.1862 22.6843L21.1991 22.6715L21.2119 22.6586L21.2247 22.6458L21.2376 22.6329L21.2505 22.62L21.2635 22.6071L21.2764 22.5941L21.2894 22.5811L21.3024 22.5681L21.3154 22.5551L21.3284 22.5421L21.3415 22.529L21.3546 22.5159L21.3677 22.5028L21.3808 22.4897L21.394 22.4766L21.4071 22.4634L21.4203 22.4502L21.4335 22.437L21.4468 22.4238L21.46 22.4105L21.4733 22.3972L21.4866 22.384L21.4999 22.3707L21.5132 22.3573L21.5265 22.344L21.5399 22.3306L21.5533 22.3172L21.5667 22.3038L21.5801 22.2904L21.5935 22.277L21.607 22.2636L21.6204 22.2501L21.6339 22.2366L21.6474 22.2231L21.6609 22.2096L21.6745 22.1961L21.688 22.1825L21.7016 22.1689L21.7152 22.1554L21.7287 22.1418L21.7424 22.1282L21.756 22.1145L21.7696 22.1009L21.7833 22.0873L21.7969 22.0736L21.8106 22.0599L21.8243 22.0462L21.838 22.0325L21.8517 22.0188L21.8655 22.0051L21.8792 21.9913L21.893 21.9776L21.9067 21.9638L21.9205 21.95L21.9343 21.9362L21.9481 21.9224L21.9619 21.9086L21.9757 21.8948L21.9896 21.881L22.0034 21.8671L22.0173 21.8533L22.0311 21.8394L22.045 21.8255L22.0589 21.8116L22.0728 21.7977L22.0867 21.7838L22.1006 21.7699L22.1145 21.756L22.1285 21.7421L22.1424 21.7281L22.1563 21.7142L22.1703 21.7002L22.1843 21.6863L22.1982 21.6723L22.2122 21.6583L22.2262 21.6443L22.2402 21.6303L22.2542 21.6164L22.2682 21.6023L22.2822 21.5883L22.2962 21.5743L22.3102 21.5603L22.3242 21.5463L22.3383 21.5323L22.3523 21.5182L22.3663 21.5042L22.3804 21.4901L22.3944 21.4761L22.4085 21.462L22.4225 21.448L22.4366 21.4339L22.4506 21.4199L22.4647 21.4058L22.4788 21.3917L22.4928 21.3777L22.5069 21.3636L22.521 21.3495L22.5351 21.3355L22.5491 21.3214L22.5632 21.3073L22.5773 21.2932L22.5914 21.2792L22.6054 21.2651L22.6195 21.251L22.6336 21.2369L22.6477 21.2228L22.6618 21.2088L22.6758 21.1947L22.6899 21.1806L22.704 21.1665L22.7181 21.1525L22.7321 21.1384L22.7462 21.1243L22.7603 21.1102L22.7744 21.0962L22.7884 21.0821L22.8025 21.068L22.8166 21.054L22.8306 21.0399L22.8447 21.0259L22.8587 21.0118L22.8728 20.9978L22.8868 20.9837L22.9008 20.9697L22.9149 20.9556L22.9289 20.9416L22.9429 20.9276L22.9569 20.9136L22.971 20.8996L22.985 20.8856L22.999 20.8715L23.013 20.8576L23.027 20.8436L23.0409 20.8296L23.0549 20.8156L23.0689 20.8016L23.0829 20.7877L23.0968 20.7737L23.1108 20.7598L23.1247 20.7458L23.1386 20.7319L23.1526 20.718L23.1665 20.7041L23.1804 20.6901L23.1943 20.6763L23.2082 20.6624L23.222 20.6485L23.2359 20.6346L23.2498 20.6208L23.2636 20.6069L23.2775 20.5931L23.2913 20.5792L23.3051 20.5654L23.3189 20.5516L23.3327 20.5378L23.3465 20.524L23.3602 20.5103L23.374 20.4965L23.3878 20.4828L23.4015 20.469L23.4152 20.4553L23.4289 20.4416L23.4426 20.4279L23.4563 20.4142L23.47 20.4006L23.4836 20.3869L23.4973 20.3733L23.5109 20.3596L23.5245 20.346L23.5381 20.3324L23.5517 20.3189L23.5652 20.3053L23.5788 20.2917L23.5923 20.2782L23.6058 20.2647L23.6193 20.2512L23.6328 20.2377L23.6463 20.2242L23.6597 20.2108L23.6732 20.1973L23.6866 20.1839L23.7 20.1705L23.7134 20.1571L23.7267 20.1438L23.7401 20.1304L23.7534 20.1171L23.7667 20.1038L23.78 20.0905L23.7933 20.0772L23.8065 20.064L23.8198 20.0507L23.833 20.0375L23.8462 20.0243L23.8594 20.0112L23.8725 19.998L23.8856 19.9849L23.8987 19.9718L23.9118 19.9587L23.9249 19.9456L23.938 19.9326L23.951 19.9195L23.964 19.9065L23.977 19.8936L23.9899 19.8806L24.0028 19.8677L24.0158 19.8548L24.0286 19.8419L24.0415 19.829L24.0543 19.8162L24.0672 19.8034L24.08 19.7906L24.0927 19.7778L24.1055 19.7651L24.1182 19.7523L24.1309 19.7396L24.1435 19.727L24.1562 19.7143L24.1688 19.7017L24.1814 19.6891L24.194 19.6766L24.2065 19.664L24.219 19.6515L24.2315 19.639L24.2439 19.6266L24.2564 19.6142L24.2688 19.6017L24.2811 19.5894L24.2935 19.577L24.3058 19.5647L24.3181 19.5524L24.3304 19.5402L24.3426 19.5279L24.3548 19.5157L24.367 19.5036L24.3791 19.4914L24.3912 19.4793L24.4033 19.4672L24.4154 19.4552L24.4274 19.4432L24.4394 19.4312L24.4513 19.4192L24.4632 19.4073L24.4751 19.3954L24.487 19.3835L24.4988 19.3717L24.5106 19.3599L24.5224 19.3481L24.5341 19.3364L24.5458 19.3247L24.5575 19.313L24.5691 19.3014L24.5808 19.2898L24.5923 19.2782L24.6039 19.2667L24.6154 19.2552L24.6268 19.2437L24.6382 19.2323L24.6496 19.2209L24.661 19.2095L24.6723 19.1982L24.6836 19.1869L24.6949 19.1757L24.7061 19.1644L24.7173 19.1533L24.7284 19.1421L24.7395 19.131L24.7506 19.1199L24.7616 19.1089L24.7726 19.0979L24.7836 19.087L24.7945 19.076L24.8054 19.0652L24.8162 19.0543L24.827 19.0435L24.8378 19.0327L24.8485 19.022L24.8592 19.0113L24.8698 19.0007L24.8805 18.9901L24.891 18.9795L24.9015 18.969L24.912 18.9585L24.9225 18.948L24.9329 18.9376L24.9432 18.9273L24.9536 18.917L24.9638 18.9067L24.9741 18.8964L24.9843 18.8862L24.9944 18.8761L25.0045 18.866L25.0146 18.8559L25.0246 18.8459L25.0346 18.8359L25.0446 18.826L25.0545 18.8161L25.0643 18.8062L25.0741 18.7964L25.0839 18.7866L25.0936 18.7769L25.1033 18.7673L25.1129 18.7576L25.1225 18.748L25.132 18.7385L25.1415 18.729L25.1509 18.7196L25.1603 18.7102L25.1697 18.7008L25.179 18.6915L25.1883 18.6823L25.1975 18.673L25.2066 18.6639L25.2158 18.6548L25.2248 18.6457L25.2338 18.6367L25.2428 18.6277L25.2517 18.6188L25.2606 18.6099L25.2694 18.6011L25.2782 18.5923L25.2869 18.5836L25.2956 18.5749L25.3042 18.5663L25.3128 18.5577L25.3214 18.5492L25.3298 18.5407L25.3383 18.5323L25.3466 18.5239L25.355 18.5156L25.3632 18.5073L25.3714 18.4991L25.3796 18.4909L25.3877 18.4828L25.3958 18.4747L25.4038 18.4667L25.4118 18.4588L25.4197 18.4509L25.4275 18.443L25.4353 18.4352L25.4431 18.4275L25.4507 18.4198L25.4584 18.4121L25.466 18.4046L25.4735 18.397L25.481 18.3896L25.4884 18.3822L25.4957 18.3748L25.503 18.3675L25.5103 18.3602L25.5175 18.353L25.5246 18.3459L25.5317 18.3388L25.5387 18.3318L25.5457 18.3248L25.5526 18.3179L25.5594 18.3111L25.5662 18.3043L25.573 18.2976L25.5796 18.2909L25.5863 18.2843L25.5928 18.2777L25.5993 18.2712L25.6058 18.2648L25.6121 18.2584L25.6185 18.2521L25.6247 18.2458L25.6309 18.2396L25.6371 18.2334L25.6432 18.2274L25.6492 18.2213L25.6551 18.2154L25.661 18.2095L25.6669 18.2036L25.6727 18.1979L25.6784 18.1922L25.684 18.1865L25.6896 18.1809L25.6951 18.1754L25.7006 18.1699L25.706 18.1645L25.7113 18.1592L25.7166 18.1539L25.7218 18.1487L25.727 18.1435L25.7321 18.1385L25.7371 18.1334L25.742 18.1285L25.7469 18.1236L25.7518 18.1188L25.7565 18.114L25.7612 18.1093L25.7658 18.1047L25.7704 18.1001L25.7749 18.0956L25.7793 18.0912L25.7837 18.0868L25.788 18.0826L25.7922 18.0783L25.7964 18.0742L25.8005 18.0701L25.8045 18.066L25.8084 18.0621L25.8123 18.0582L25.8161 18.0544L25.8199 18.0506L25.8236 18.0469L25.8272 18.0433L25.8307 18.0398L25.8342 18.0363L25.8376 18.0329L25.8409 18.0296L25.8442 18.0263L25.8474 18.0231L25.8505 18.02L25.8536 18.0169L25.8566 18.014L25.8595 18.0111L25.8623 18.0082L25.8651 18.0055L25.8678 18.0028L25.8704 18.0001L25.8729 17.9976L25.8754 17.9951L25.8778 17.9927L25.8801 17.9904L25.8824 17.9881L25.8846 17.986L25.8867 17.9839L25.8887 17.9818L25.8907 17.9799L25.8925 17.978L25.8944 17.9762L25.8961 17.9744L25.8977 17.9728L25.8993 17.9712C26.2899 17.5807 26.2899 16.9475 25.8993 16.557C25.5088 16.1665 24.8756 16.1665 24.4851 16.557L24.4835 16.5586L24.4819 16.5602L24.4801 16.562L24.4783 16.5638L24.4765 16.5656L24.4745 16.5676L24.4725 16.5696L24.4704 16.5717L24.4682 16.5739L24.4659 16.5762L24.4636 16.5785L24.4612 16.5809L24.4587 16.5834L24.4562 16.5859L24.4535 16.5886L24.4509 16.5912L24.4481 16.594L24.4453 16.5968L24.4423 16.5998L24.4394 16.6027L24.4363 16.6058L24.4332 16.6089L24.43 16.6121L24.4267 16.6154L24.4234 16.6187L24.42 16.6221L24.4165 16.6256L24.413 16.6291L24.4094 16.6327L24.4057 16.6364L24.4019 16.6402L24.3981 16.644L24.3942 16.6479L24.3903 16.6518L24.3862 16.6559L24.3821 16.6599L24.378 16.6641L24.3738 16.6683L24.3695 16.6726L24.3651 16.677L24.3607 16.6814L24.3562 16.6859L24.3516 16.6905L24.347 16.6951L24.3423 16.6998L24.3375 16.7046L24.3327 16.7094L24.3278 16.7143L24.3229 16.7192L24.3178 16.7242L24.3128 16.7293L24.3076 16.7345L24.3024 16.7397L24.2971 16.745L24.2918 16.7503L24.2864 16.7557L24.2809 16.7612L24.2754 16.7667L24.2698 16.7723L24.2642 16.7779L24.2584 16.7837L24.2527 16.7894L24.2468 16.7953L24.2409 16.8012L24.235 16.8071L24.2289 16.8131L24.2229 16.8192L24.2167 16.8254L24.2105 16.8316L24.2043 16.8378L24.1979 16.8442L24.1916 16.8505L24.1851 16.857L24.1786 16.8635L24.172 16.87L24.1654 16.8767L24.1588 16.8833L24.152 16.8901L24.1452 16.8969L24.1384 16.9037L24.1315 16.9106L24.1245 16.9176L24.1175 16.9246L24.1104 16.9317L24.1033 16.9388L24.0961 16.946L24.0888 16.9533L24.0815 16.9606L24.0742 16.9679L24.0667 16.9754L24.0593 16.9828L24.0517 16.9904L24.0442 16.9979L24.0365 17.0056L24.0288 17.0133L24.0211 17.021L24.0133 17.0288L24.0054 17.0366L23.9975 17.0446L23.9896 17.0525L23.9816 17.0605L23.9735 17.0686L23.9654 17.0767L23.9572 17.0849L23.949 17.0931L23.9407 17.1014L23.9324 17.1097L23.924 17.1181L23.9156 17.1265L23.9071 17.135L23.8986 17.1435L23.89 17.1521L23.8814 17.1607L23.8727 17.1694L23.864 17.1781L23.8552 17.1869L23.8464 17.1957L23.8375 17.2046L23.8286 17.2135L23.8196 17.2225L23.8106 17.2315L23.8015 17.2406L23.7924 17.2497L23.7833 17.2588L23.7741 17.268L23.7648 17.2773L23.7555 17.2866L23.7461 17.296L23.7367 17.3054L23.7273 17.3148L23.7178 17.3243L23.7083 17.3338L23.6987 17.3434L23.6891 17.353L23.6794 17.3627L23.6697 17.3724L23.6599 17.3822L23.6501 17.392L23.6402 17.4019L23.6303 17.4118L23.6204 17.4217L23.6104 17.4317L23.6004 17.4417L23.5903 17.4518L23.5802 17.4619L23.5701 17.472L23.5599 17.4822L23.5496 17.4925L23.5394 17.5027L23.529 17.5131L23.5187 17.5234L23.5083 17.5338L23.4978 17.5443L23.4873 17.5548L23.4768 17.5653L23.4662 17.5759L23.4556 17.5865L23.445 17.5971L23.4343 17.6078L23.4236 17.6185L23.4128 17.6293L23.402 17.6401L23.3912 17.6509L23.3803 17.6618L23.3694 17.6727L23.3584 17.6837L23.3474 17.6947L23.3364 17.7057L23.3253 17.7168L23.3142 17.7279L23.3031 17.739L23.2919 17.7502L23.2807 17.7614L23.2694 17.7727L23.2581 17.784L23.2468 17.7953L23.2354 17.8067L23.224 17.8181L23.2126 17.8295L23.2011 17.841L23.1896 17.8525L23.1781 17.864L23.1665 17.8756L23.1549 17.8872L23.1433 17.8988L23.1316 17.9105L23.1199 17.9222L23.1082 17.9339L23.0964 17.9457L23.0846 17.9575L23.0728 17.9693L23.0609 17.9812L23.049 17.9931L23.0371 18.005L23.0251 18.0169L23.0132 18.0289L23.0011 18.041L22.9891 18.053L22.977 18.0651L22.9649 18.0772L22.9527 18.0893L22.9406 18.1015L22.9284 18.1137L22.9161 18.126L22.9039 18.1382L22.8916 18.1505L22.8793 18.1628L22.8669 18.1752L22.8546 18.1875L22.8422 18.1999L22.8297 18.2124L22.8173 18.2248L22.8048 18.2373L22.7923 18.2498L22.7797 18.2624L22.7672 18.2749L22.7546 18.2875L22.742 18.3001L22.7293 18.3128L22.7167 18.3254L22.704 18.3381L22.6913 18.3508L22.6785 18.3636L22.6657 18.3764L22.653 18.3891L22.6401 18.402L22.6273 18.4148L22.6144 18.4277L22.6015 18.4406L22.5886 18.4535L22.5757 18.4664L22.5627 18.4794L22.5498 18.4923L22.5368 18.5053L22.5237 18.5184L22.5107 18.5314L22.4976 18.5445L22.4845 18.5576L22.4714 18.5707L22.4583 18.5838L22.4451 18.597L22.432 18.6101L22.4188 18.6233L22.4056 18.6365L22.3923 18.6498L22.3791 18.663L22.3658 18.6763L22.3525 18.6896L22.3392 18.7029L22.3259 18.7162L22.3125 18.7296L22.2992 18.7429L22.2858 18.7563L22.2724 18.7697L22.259 18.7831L22.2455 18.7966L22.2321 18.81L22.2186 18.8235L22.2051 18.837L22.1916 18.8505L22.1781 18.864L22.1646 18.8775L22.151 18.8911L22.1375 18.9046L22.1239 18.9182L22.1103 18.9318L22.0967 18.9454L22.083 18.9591L22.0694 18.9727L22.0557 18.9864L22.0421 19L22.0284 19.0137L22.0147 19.0274L22.001 19.0411L21.9873 19.0548L21.9735 19.0686L21.9598 19.0823L21.946 19.0961L21.9323 19.1098L21.9185 19.1236L21.9047 19.1374L21.8909 19.1512L21.8771 19.165L21.8632 19.1789L21.8494 19.1927L21.8356 19.2065L21.8217 19.2204L21.8078 19.2343L21.7939 19.2482L21.7801 19.262L21.7662 19.2759L21.7523 19.2898L21.7383 19.3038L21.7244 19.3177L21.7105 19.3316L21.6965 19.3456L21.6826 19.3595L21.6686 19.3735L21.6547 19.3874L21.6407 19.4014L21.6267 19.4154L21.6127 19.4293L21.5988 19.4433L21.5848 19.4573L21.5708 19.4713L21.5568 19.4853L21.5427 19.4994L21.5287 19.5134L21.5147 19.5274L21.5007 19.5414L21.4866 19.5555L21.4726 19.5695L21.4585 19.5836L21.4445 19.5976L21.4304 19.6116L21.4164 19.6257L21.4023 19.6398L21.3883 19.6538L21.3742 19.6679L21.3601 19.682L21.3461 19.696L21.332 19.7101L21.3179 19.7242L21.3039 19.7382L21.2898 19.7523L21.2757 19.7664L21.2616 19.7805L21.2476 19.7945L21.2335 19.8086L21.2194 19.8227L21.2053 19.8368L21.1912 19.8509L21.1772 19.8649L21.1631 19.879L21.149 19.8931L21.1349 19.9072L21.1208 19.9213L21.1068 19.9353L21.0927 19.9494L21.0786 19.9635L21.0646 19.9775L21.0505 19.9916L21.0364 20.0057L21.0224 20.0197L21.0083 20.0338L20.9943 20.0478L20.9802 20.0619L20.9662 20.0759L20.9521 20.09L20.9381 20.104L20.9241 20.118L20.91 20.1321L20.896 20.1461L20.882 20.1601L20.868 20.1741L20.854 20.1881L20.84 20.2021L20.826 20.2161L20.812 20.2301L20.798 20.2441L20.784 20.2581L20.77 20.272L20.7561 20.286L20.7421 20.3L20.7282 20.3139L20.7142 20.3278L20.7003 20.3418L20.6864 20.3557L20.6725 20.3696L20.6586 20.3835L20.6447 20.3974L20.6308 20.4113L20.6169 20.4252L20.6031 20.439L20.5892 20.4529L20.5754 20.4667L20.5615 20.4806L20.5477 20.4944L20.5339 20.5082L20.5201 20.522L20.5063 20.5358L20.4925 20.5496L20.4787 20.5634L20.465 20.5771L20.4512 20.5909L20.4375 20.6046L20.4238 20.6183L20.4101 20.632L20.3964 20.6457L20.3827 20.6594L20.3691 20.673L20.3554 20.6867L20.3418 20.7003L20.3281 20.714L20.3145 20.7276L20.3009 20.7412L20.2874 20.7547L20.2738 20.7683L20.2603 20.7818L20.2467 20.7954L20.2332 20.8089L20.2197 20.8224L20.2062 20.8359L20.1928 20.8493L20.1793 20.8628L20.1659 20.8762L20.1525 20.8896L20.1391 20.903L20.1257 20.9164L20.1123 20.9298L20.099 20.9431L20.0857 20.9564L20.0724 20.9697L20.0591 20.983L20.0458 20.9963L20.0326 21.0095L20.0193 21.0228L20.0061 21.036L19.9929 21.0492L19.9798 21.0623L19.9666 21.0755L19.9535 21.0886L19.9404 21.1017L19.9273 21.1148L19.9142 21.1279L19.9012 21.1409L19.8882 21.1539L19.8752 21.1669L19.8622 21.1799L19.8492 21.1928L19.8363 21.2058L19.8234 21.2187L19.8105 21.2316L19.7977 21.2444L19.7848 21.2573L19.772 21.2701L19.7592 21.2829L19.7465 21.2956L19.7337 21.3084L19.721 21.3211L19.7083 21.3338L19.6957 21.3464L19.683 21.3591L19.6704 21.3717L19.6578 21.3843L19.6453 21.3968L19.6328 21.4093L19.6203 21.4218L19.6078 21.4343L19.5953 21.4468L19.5829 21.4592L19.5705 21.4716L19.5581 21.484L19.5458 21.4963L19.5335 21.5086L19.5212 21.5209L19.509 21.5331L19.4967 21.5454L19.4845 21.5576L19.4724 21.5697L19.4602 21.5819L19.4481 21.594L19.4361 21.606L19.424 21.6181L19.412 21.6301L19.4 21.6421L19.3881 21.654L19.3761 21.666L19.3642 21.6779L19.3524 21.6897L19.3406 21.7015L19.3288 21.7133L19.317 21.7251L19.3053 21.7368L19.2936 21.7485L19.2819 21.7602L19.2703 21.7718L19.2587 21.7834L19.2471 21.795L19.2356 21.8065L19.2241 21.818L19.2127 21.8294L19.2012 21.8409L19.1899 21.8522L19.1785 21.8636L19.1672 21.8749L19.1559 21.8862L19.1447 21.8974L19.1334 21.9086L19.1223 21.9198L19.1111 21.931L19.1 21.9421L19.089 21.9531L19.078 21.9641L19.067 21.9751L19.056 21.9861L19.0451 21.997L19.0342 22.0079L19.0234 22.0187L19.0126 22.0295L19.0018 22.0402L18.9911 22.051L18.9805 22.0616L18.9698 22.0723L18.9592 22.0829L18.9487 22.0934L18.9381 22.104L18.9277 22.1144L18.9172 22.1249L18.9068 22.1353L18.8965 22.1456L18.8862 22.1559Z" fill="#A9B0B5"/>
</svg>
