<svg width="32" height="33" viewBox="0 0 32 33" fill="none" xmlns="http://www.w3.org/2000/svg">
<path d="M29.6667 23.25H2M2 7.6875H14.45M11.6833 2.5H4.76667C3.46218 2.5 2.81063 2.5 2.40532 2.90532C2 3.31063 2 3.96218 2 5.26667V27.4C2 28.7045 2 29.356 2.40532 29.7614C2.81063 30.1667 3.46218 30.1667 4.76667 30.1667H7.53333L10.3 27.4L13.0667 30.1667H26.9C28.2045 30.1667 28.856 30.1667 29.2614 29.7614C29.6667 29.356 29.6667 28.7045 29.6667 27.4V22.1952C29.6667 18.7424 29.6667 17.016 28.643 15.8436C27.6193 14.6706 25.9088 14.4375 22.4879 13.9713L21.6288 13.8537C18.2078 13.3875 16.4966 13.1544 15.473 11.9814C14.45 10.809 14.45 9.08328 14.45 5.62979V5.26667C14.45 3.96218 14.45 3.31063 14.0447 2.90532C13.6394 2.5 12.9878 2.5 11.6833 2.5Z" stroke="#0D615C" stroke-width="4" stroke-linecap="round" stroke-linejoin="round"/>
<path d="M9.60869 17.7164C10.7547 17.7164 11.6837 16.7874 11.6837 15.6414C11.6837 14.4954 10.7547 13.5664 9.60869 13.5664C8.4627 13.5664 7.53369 14.4954 7.53369 15.6414C7.53369 16.7874 8.4627 17.7164 9.60869 17.7164Z" fill="#0D615C" stroke="#0D615C" stroke-width="4" stroke-linecap="round" stroke-linejoin="round"/>
</svg>
