<svg width="132" height="66" viewBox="0 0 132 66" fill="none" xmlns="http://www.w3.org/2000/svg">
<path d="M4.12109 4.85938V19H1.19141V4.85938H4.12109ZM9.33594 12.8672V19H6.44531V8.39453H9.19922V10.25H9.31641C9.79492 9.0293 10.9277 8.25781 12.5 8.25781C14.7168 8.25781 16.1621 9.77148 16.1523 12.2422V19H13.2812V12.75C13.2715 11.4414 12.5684 10.6602 11.3672 10.6602C10.166 10.6602 9.33594 11.4707 9.33594 12.8672ZM24.4531 11.5391C24.3262 10.7969 23.6816 10.3184 22.7148 10.3086C21.7773 10.3184 21.0645 10.7578 21.0742 11.4023C21.0645 11.8809 21.4355 12.252 22.4414 12.457L24.3359 12.8477C26.3965 13.2773 27.3926 14.1953 27.4023 15.7188C27.3926 17.8086 25.5176 19.2051 22.6953 19.2148C19.834 19.2051 18.1543 17.9258 17.9102 15.8555H20.8203C20.957 16.6855 21.6309 17.1152 22.6953 17.125C23.75 17.1152 24.4531 16.6953 24.4531 16.0117C24.4531 15.4648 24.0039 15.123 23.0078 14.918L21.25 14.5664C19.2285 14.166 18.1934 13.1309 18.2031 11.5586C18.1934 9.52734 19.9414 8.25781 22.6758 8.25781C25.3516 8.25781 27.0117 9.52734 27.168 11.5391H24.4531ZM35.9766 14.4883V8.39453H38.8672V19H36.0938V17.0859H35.9766C35.498 18.3164 34.3555 19.1367 32.7539 19.1367C30.6348 19.1367 29.1797 17.6328 29.1797 15.1523V8.39453H32.0703V14.6445C32.0703 15.9043 32.793 16.6855 33.9258 16.6953C34.9805 16.6855 35.9766 15.9336 35.9766 14.4883ZM41.1133 19V8.39453H43.9062V10.2305H44.0234C44.4043 8.93164 45.3906 8.23828 46.582 8.23828C46.875 8.23828 47.2461 8.27734 47.5 8.33594V10.9141C47.2266 10.8262 46.6699 10.7578 46.2695 10.7578C44.9609 10.7578 43.9941 11.666 44.0039 12.9648V19H41.1133ZM48.1055 16.0312C48.1152 13.668 50.0098 12.8965 52.0508 12.7695C52.8125 12.7207 54.2383 12.6523 54.6875 12.6328V11.7734C54.6777 10.8848 54.0723 10.377 52.9883 10.3672C52.002 10.377 51.3867 10.8164 51.2305 11.5391H48.4766C48.6523 9.70312 50.2539 8.25781 53.0664 8.25781C55.3809 8.25781 57.5684 9.29297 57.5586 11.8516V19H54.8242V17.5352H54.7461C54.2285 18.5117 53.2129 19.2051 51.6406 19.1953C49.6094 19.2051 48.1152 18.1309 48.1055 16.0312ZM50.8789 15.9531C50.8789 16.7637 51.5332 17.1934 52.4609 17.2031C53.7793 17.1934 54.6973 16.334 54.6875 15.2109V14.4395C54.248 14.459 53.0078 14.5273 52.5195 14.5664C51.5137 14.6543 50.8789 15.1328 50.8789 15.9531ZM62.6562 12.8672V19H59.7656V8.39453H62.5195V10.25H62.6367C63.1152 9.0293 64.248 8.25781 65.8203 8.25781C68.0371 8.25781 69.4824 9.77148 69.4727 12.2422V19H66.6016V12.75C66.5918 11.4414 65.8887 10.6602 64.6875 10.6602C63.4863 10.6602 62.6562 11.4707 62.6562 12.8672ZM76.4844 19.2148C73.2324 19.2051 71.2793 16.959 71.2891 13.7266C71.2793 10.4844 73.2715 8.25781 76.4844 8.25781C79.2188 8.25781 81.0742 9.84961 81.1914 12.2812H78.4766C78.3008 11.2363 77.6172 10.5137 76.5234 10.5039C75.1367 10.5137 74.2188 11.6758 74.2188 13.6875C74.2188 15.7383 75.1172 16.9102 76.5234 16.9102C77.5391 16.9102 78.291 16.2754 78.4766 15.1523H81.1914C81.0645 17.5547 79.2969 19.2051 76.4844 19.2148ZM87.793 19.2148C84.541 19.2051 82.5488 17.1055 82.5586 13.7461C82.5488 10.4746 84.5703 8.25781 87.6758 8.25781C90.459 8.25781 92.6562 10.0156 92.6562 13.6289V14.4492H85.4102C85.4102 16.0508 86.3574 17.0371 87.8516 17.0469C88.8379 17.0371 89.541 16.6074 89.8242 15.9727H92.5781C92.168 17.9355 90.4102 19.2051 87.793 19.2148ZM85.4102 12.6328H89.9219C89.9121 11.3438 89.0234 10.416 87.7344 10.4258C86.4062 10.416 85.4688 11.4121 85.4102 12.6328Z" fill="white"/>
<mask id="mask0_3539_3318" style="mask-type:alpha" maskUnits="userSpaceOnUse" x="98" y="0" width="24" height="24">
<rect x="98" width="24" height="24" fill="#D9D9D9"/>
</mask>
<g mask="url(#mask0_3539_3318)">
<path d="M110.6 12L106 7.4L107.4 6L113.4 12L107.4 18L106 16.6L110.6 12Z" fill="white"/>
</g>
<path d="M0.519531 36.4004V35.1016H8.18945V36.4004H5.11328V45H3.60938V36.4004H0.519531ZM8.81836 45V37.5762H10.2266V38.752H10.3086C10.582 37.959 11.3203 37.4668 12.1953 37.4668C12.373 37.4668 12.6602 37.4805 12.8105 37.4941V38.8887C12.6875 38.8613 12.3457 38.8066 12.0449 38.8066C11.0332 38.8066 10.2812 39.5039 10.2812 40.4746V45H8.81836ZM13.4805 42.9082C13.4805 41.2129 14.916 40.7754 16.2559 40.6797C16.748 40.6455 17.8623 40.584 18.2109 40.5703L18.1973 39.9824C18.1973 39.1484 17.6914 38.6562 16.6934 38.6562C15.832 38.6562 15.3125 39.0527 15.1621 39.5996H13.7129C13.8496 38.3691 14.998 37.4805 16.748 37.4805C17.9238 37.4805 19.6602 37.918 19.6602 40.0645V45H18.2383V43.9883H18.1836C17.8965 44.5488 17.2129 45.1641 15.9824 45.1641C14.5742 45.1641 13.4805 44.3574 13.4805 42.9082ZM14.9023 42.9219C14.9023 43.6328 15.4902 44.002 16.3105 44.002C17.5 44.002 18.2109 43.209 18.2109 42.3203V41.6367C17.8691 41.6641 16.8027 41.7393 16.4609 41.7598C15.5039 41.8281 14.9023 42.1836 14.9023 42.9219ZM27.5215 37.5762L24.8281 45H23.2559L20.5625 37.5762H22.1348L24.0078 43.2773H24.0762L25.9492 37.5762H27.5215ZM31.6504 45.1504C29.4629 45.1504 28.123 43.6465 28.123 41.3359C28.123 39.0527 29.4902 37.4805 31.5547 37.4805C33.25 37.4805 34.8496 38.5332 34.8496 41.2129V41.7324H29.5723C29.6133 43.1406 30.4404 43.9473 31.6641 43.9473C32.498 43.9473 33.0312 43.5918 33.2773 43.1406H34.7539C34.4258 44.3438 33.2773 45.1504 31.6504 45.1504ZM29.5859 40.6387H33.4141C33.4141 39.5039 32.6895 38.6836 31.5684 38.6836C30.3994 38.6836 29.6406 39.5859 29.5859 40.6387ZM37.7617 35.1016V45H36.2988V35.1016H37.7617ZM42.957 45V37.5762H44.4199V45H42.957ZM43.6953 36.4277C43.1895 36.4277 42.7656 36.0449 42.7656 35.5664C42.7656 35.0879 43.1895 34.7051 43.6953 34.7051C44.1875 34.7051 44.6113 35.0879 44.6113 35.5664C44.6113 36.0449 44.1875 36.4277 43.6953 36.4277ZM47.6602 40.5977V45H46.1973V37.5762H47.6055V38.793H47.6875C48.043 38 48.7676 37.4805 49.875 37.4805C51.4062 37.4805 52.4043 38.4375 52.4043 40.2832V45H50.9551V40.4609C50.9551 39.3809 50.3672 38.7383 49.3828 38.7383C48.3848 38.7383 47.6602 39.4082 47.6602 40.5977ZM58.3516 39.5996C58.2148 39.0117 57.75 38.6289 56.9434 38.6289C56.1094 38.6289 55.5078 39.0664 55.5215 39.627C55.5078 40.0645 55.8633 40.3789 56.6836 40.5703L57.8594 40.8438C59.2266 41.1445 59.8828 41.8008 59.8965 42.8535C59.8828 44.1934 58.7617 45.1504 56.8613 45.1504C55.084 45.1504 54.0176 44.3574 53.8398 42.9766H55.3301C55.4531 43.6465 55.9727 43.9746 56.8477 43.9746C57.791 43.9746 58.3926 43.5918 58.4062 42.9629C58.3926 42.4844 58.0371 42.1699 57.2578 41.9922L56.0957 41.7461C54.7559 41.4453 54.0586 40.7344 54.0586 39.709C54.0586 38.3828 55.207 37.4805 56.9297 37.4805C58.584 37.4805 59.6094 38.3281 59.7598 39.5996H58.3516ZM66.0352 41.9102V37.5762H67.4844V45H66.0625V43.7148H65.9805C65.6387 44.5078 64.873 45.0957 63.7656 45.0957C62.3301 45.0957 61.3184 44.1387 61.3184 42.293V37.5762H62.7812V42.1152C62.7812 43.127 63.3965 43.7695 64.2852 43.7695C65.0918 43.7695 66.0352 43.1816 66.0352 41.9102ZM69.2617 45V37.5762H70.6699V38.752H70.752C71.0254 37.959 71.7637 37.4668 72.6387 37.4668C72.8164 37.4668 73.1035 37.4805 73.2539 37.4941V38.8887C73.1309 38.8613 72.7891 38.8066 72.4883 38.8066C71.4766 38.8066 70.7246 39.5039 70.7246 40.4746V45H69.2617ZM73.9238 42.9082C73.9238 41.2129 75.3594 40.7754 76.6992 40.6797C77.1914 40.6455 78.3057 40.584 78.6543 40.5703L78.6406 39.9824C78.6406 39.1484 78.1348 38.6562 77.1367 38.6562C76.2754 38.6562 75.7559 39.0527 75.6055 39.5996H74.1562C74.293 38.3691 75.4414 37.4805 77.1914 37.4805C78.3672 37.4805 80.1035 37.918 80.1035 40.0645V45H78.6816V43.9883H78.627C78.3398 44.5488 77.6562 45.1641 76.4258 45.1641C75.0176 45.1641 73.9238 44.3574 73.9238 42.9082ZM75.3457 42.9219C75.3457 43.6328 75.9336 44.002 76.7539 44.002C77.9434 44.002 78.6543 43.209 78.6543 42.3203V41.6367C78.3125 41.6641 77.2461 41.7393 76.9043 41.7598C75.9473 41.8281 75.3457 42.1836 75.3457 42.9219ZM83.3301 40.5977V45H81.8672V37.5762H83.2754V38.793H83.3574C83.7129 38 84.4375 37.4805 85.5449 37.4805C87.0762 37.4805 88.0742 38.4375 88.0742 40.2832V45H86.625V40.4609C86.625 39.3809 86.0371 38.7383 85.0527 38.7383C84.0547 38.7383 83.3301 39.4082 83.3301 40.5977ZM92.9961 45.1504C90.8359 45.1504 89.5234 43.5508 89.5234 41.3223C89.5234 39.0527 90.877 37.4805 92.9688 37.4805C94.6641 37.4805 95.8945 38.4785 96.0449 39.9824H94.623C94.4727 39.2852 93.9121 38.6973 92.9961 38.6973C91.793 38.6973 90.9863 39.6953 90.9863 41.2812C90.9863 42.9082 91.7793 43.9062 92.9961 43.9062C93.8164 43.9062 94.4453 43.4551 94.623 42.6484H96.0449C95.8809 44.084 94.7461 45.1504 92.9961 45.1504ZM100.625 45.1504C98.4375 45.1504 97.0977 43.6465 97.0977 41.3359C97.0977 39.0527 98.4648 37.4805 100.529 37.4805C102.225 37.4805 103.824 38.5332 103.824 41.2129V41.7324H98.5469C98.5879 43.1406 99.415 43.9473 100.639 43.9473C101.473 43.9473 102.006 43.5918 102.252 43.1406H103.729C103.4 44.3438 102.252 45.1504 100.625 45.1504ZM98.5605 40.6387H102.389C102.389 39.5039 101.664 38.6836 100.543 38.6836C99.374 38.6836 98.6152 39.5859 98.5605 40.6387ZM1.01172 62V52.1016H4.63477C6.74023 52.1016 7.76562 53.2363 7.76562 54.6992C7.76562 55.9297 7.01367 56.5586 6.09766 56.791V56.8867C7.08203 56.9414 8.14844 57.8027 8.14844 59.334C8.14844 60.8516 7.10938 62 4.79883 62H1.01172ZM4.66211 60.7148C6.08398 60.7148 6.6582 60.0859 6.6582 59.2656C6.6582 58.3223 5.90625 57.5566 4.7168 57.5566H2.51562V60.7148H4.66211ZM4.51172 56.3809C5.50977 56.3809 6.28906 55.7656 6.28906 54.8223C6.28906 54.002 5.72852 53.3867 4.53906 53.3867H2.51562V56.3809H4.51172ZM12.7832 62.1504C10.6777 62.1504 9.31055 60.6191 9.31055 58.3223C9.31055 56.0117 10.6777 54.4805 12.7832 54.4805C14.875 54.4805 16.2422 56.0117 16.2422 58.3223C16.2422 60.6191 14.875 62.1504 12.7832 62.1504ZM12.7832 60.9336C14.123 60.9336 14.7656 59.7441 14.7656 58.3223C14.7656 56.9004 14.123 55.6836 12.7832 55.6836C11.416 55.6836 10.7734 56.9004 10.7734 58.3223C10.7734 59.7441 11.416 60.9336 12.7832 60.9336ZM20.8223 62.1504C18.7168 62.1504 17.3496 60.6191 17.3496 58.3223C17.3496 56.0117 18.7168 54.4805 20.8223 54.4805C22.9141 54.4805 24.2812 56.0117 24.2812 58.3223C24.2812 60.6191 22.9141 62.1504 20.8223 62.1504ZM20.8223 60.9336C22.1621 60.9336 22.8047 59.7441 22.8047 58.3223C22.8047 56.9004 22.1621 55.6836 20.8223 55.6836C19.4551 55.6836 18.8125 56.9004 18.8125 58.3223C18.8125 59.7441 19.4551 60.9336 20.8223 60.9336ZM25.7168 62V52.1016H27.1797V57.707H27.3027L30.2422 54.5762H31.9922L28.998 57.7617L32.1973 62H30.4062L27.8906 58.6641L27.1797 59.3613V62H25.7168ZM33.1406 62V54.5762H34.6035V62H33.1406ZM33.8789 53.4277C33.373 53.4277 32.9492 53.0449 32.9492 52.5664C32.9492 52.0879 33.373 51.7051 33.8789 51.7051C34.3711 51.7051 34.7949 52.0879 34.7949 52.5664C34.7949 53.0449 34.3711 53.4277 33.8789 53.4277ZM37.8438 57.5977V62H36.3809V54.5762H37.7891V55.793H37.8711C38.2266 55 38.9512 54.4805 40.0586 54.4805C41.5898 54.4805 42.5879 55.4375 42.5879 57.2832V62H41.1387V57.4609C41.1387 56.3809 40.5508 55.7383 39.5664 55.7383C38.5684 55.7383 37.8438 56.4082 37.8438 57.5977ZM47.4824 64.9395C45.6094 64.9395 44.3789 64.1055 44.2422 62.7246H45.7324C45.8691 63.4219 46.5254 63.7637 47.4961 63.7637C48.6582 63.7637 49.3965 63.2715 49.3965 62.1094V60.6465H49.3008C49.041 61.125 48.5078 61.8906 47.1406 61.8906C45.3906 61.8906 44.0371 60.5781 44.0371 58.2129C44.0371 55.8477 45.3633 54.4805 47.1543 54.4805C48.5352 54.4805 49.041 55.3145 49.3145 55.7793H49.4102V54.5762H50.832V62.1641C50.832 64.0645 49.3965 64.9395 47.4824 64.9395ZM47.4688 60.6875C48.7129 60.6875 49.4102 59.7715 49.4102 58.2402C49.4102 56.7363 48.7266 55.7246 47.4688 55.7246C46.1699 55.7246 45.5273 56.8184 45.5273 58.2402C45.5273 59.6895 46.1973 60.6875 47.4688 60.6875ZM57.4902 57.5977V62H56.0273V54.5762H57.4355V55.793H57.5176C57.873 55 58.5977 54.4805 59.7051 54.4805C61.2363 54.4805 62.2344 55.4375 62.2344 57.2832V62H60.7852V57.4609C60.7852 56.3809 60.1973 55.7383 59.2129 55.7383C58.2148 55.7383 57.4902 56.4082 57.4902 57.5977ZM67.1562 62.1504C65.0508 62.1504 63.6836 60.6191 63.6836 58.3223C63.6836 56.0117 65.0508 54.4805 67.1562 54.4805C69.248 54.4805 70.6152 56.0117 70.6152 58.3223C70.6152 60.6191 69.248 62.1504 67.1562 62.1504ZM67.1562 60.9336C68.4961 60.9336 69.1387 59.7441 69.1387 58.3223C69.1387 56.9004 68.4961 55.6836 67.1562 55.6836C65.7891 55.6836 65.1465 56.9004 65.1465 58.3223C65.1465 59.7441 65.7891 60.9336 67.1562 60.9336ZM73.418 62L71.2441 54.5762H72.748L74.1973 60.0176H74.2793L75.7285 54.5762H77.2324L78.668 59.9902H78.75L80.1855 54.5762H81.6895L79.5156 62H78.0254L76.5215 56.6543H76.4121L74.9219 62H73.418Z" fill="#A9B0B5"/>
</svg>
