<svg width="44" height="44" viewBox="0 0 44 44" fill="none" xmlns="http://www.w3.org/2000/svg">
<path d="M19.9125 38.6655C20.2298 38.883 20.6101 39 21 39C21.3899 39 21.7702 38.883 22.0875 38.6655C22.6575 38.2785 36.0542 28.9922 35.9998 17.4001C35.9998 9.46025 29.2705 3 21 3C12.7295 3 6.00017 9.46025 6.00017 17.3911C5.94579 28.9922 19.3425 38.2785 19.9125 38.6655Z" fill="white"/>
<path d="M20.0575 36.7027C20.3325 36.896 20.662 37 21 37C21.338 37 21.6675 36.896 21.9425 36.7027C22.4365 36.3587 34.047 28.1042 33.9999 17.8001C33.9999 10.7424 28.1678 5 21 5C13.8322 5 8.00014 10.7424 8.00014 17.7921C7.95302 28.1042 19.5635 36.3587 20.0575 36.7027Z" fill="#0D615C"/>
<path d="M18.6562 18.2227C18.3867 17.3203 17.6836 16.7695 16.6523 16.7695C15.2812 16.7695 14.2969 17.8359 14.2969 19.7461C14.2969 21.6797 15.2695 22.7461 16.6875 22.7461C17.9648 22.7461 18.7852 21.9727 18.8086 20.7656H16.8398V19.5586H20.2852V20.5781C20.2852 22.7578 18.7852 24.1172 16.6875 24.1172C14.3438 24.1172 12.7617 22.4531 12.7617 19.7578C12.7617 17.0391 14.4141 15.3984 16.6406 15.3984C18.5156 15.3984 19.957 16.5586 20.2148 18.2227H18.6562ZM29.2383 19.7578C29.2383 22.5 27.5742 24.1172 25.3477 24.1172C23.1211 24.1172 21.457 22.4883 21.457 19.7578C21.457 17.0156 23.1211 15.3984 25.3477 15.3984C27.5742 15.3984 29.2383 17.0156 29.2383 19.7578ZM27.7031 19.7578C27.7031 17.8242 26.7305 16.7695 25.3477 16.7695C23.9648 16.7695 22.9922 17.8242 22.9922 19.7578C22.9922 21.6914 23.9648 22.7461 25.3477 22.7461C26.7305 22.7461 27.7031 21.6914 27.7031 19.7578Z" fill="white"/>
</svg>
