<svg width="20" height="20" viewBox="0 0 20 20" fill="none" xmlns="http://www.w3.org/2000/svg">
<path d="M9.99978 11.3637C11.2532 11.3637 12.2725 10.3444 12.2725 9.09096C12.2725 7.83756 11.2532 6.81824 9.99978 6.81824C8.74637 6.81824 7.72705 7.83756 7.72705 9.09096C7.72705 10.3444 8.74637 11.3637 9.99978 11.3637ZM9.99978 7.9546C10.6265 7.9546 11.1361 8.46426 11.1361 9.09096C11.1361 9.71767 10.6265 10.2273 9.99978 10.2273C9.37307 10.2273 8.86341 9.71767 8.86341 9.09096C8.86341 8.46426 9.37307 7.9546 9.99978 7.9546Z" fill="#868C90"/>
<path d="M9.6705 15.3531C9.76666 15.4191 9.88188 15.4545 10 15.4545C10.1182 15.4545 10.2334 15.4191 10.3296 15.3531C10.5023 15.2359 14.5619 12.4218 14.5454 8.90908C14.5454 6.50306 12.5063 4.54541 10 4.54541C7.49382 4.54541 5.45464 6.50306 5.45464 8.90635C5.43816 12.4218 9.49778 15.2359 9.6705 15.3531ZM10 5.63633C11.8801 5.63633 13.4091 7.10416 13.4091 8.91181C13.421 11.3326 10.9159 13.5062 10 14.2191C9.08471 13.5057 6.57906 11.3315 6.59099 8.90908C6.59099 7.10416 8.11995 5.63633 10 5.63633Z" fill="#868C90"/>
</svg>
