<svg width="126" height="30" viewBox="0 0 126 30" fill="none" xmlns="http://www.w3.org/2000/svg">
<path d="M22.24 14.092C22.24 15.604 21.96 16.9387 21.4 18.096C20.84 19.2347 20.0747 20.1867 19.104 20.952C18.1333 21.736 17.004 22.324 15.716 22.716C14.4467 23.108 13.084 23.304 11.628 23.304C10.0973 23.304 8.632 23.0613 7.232 22.576C5.85067 22.1093 4.628 21.4 3.564 20.448C2.5 19.5147 1.65067 18.3387 1.016 16.92C0.4 15.5013 0.092 13.8493 0.092 11.964C0.092 10.0787 0.4 8.42667 1.016 7.008C1.65067 5.58933 2.5 4.41333 3.564 3.48C4.628 2.528 5.85067 1.81867 7.232 1.352C8.632 0.866666 10.0973 0.623999 11.628 0.623999C13.6067 0.623999 15.4173 1.016 17.06 1.8C18.7027 2.56533 20.084 3.69467 21.204 5.188L20.056 6L18.768 7.4L17.928 8.744C17.144 7.69867 16.248 6.924 15.24 6.42C14.232 5.916 13.028 5.664 11.628 5.664C10.788 5.664 10.0133 5.78533 9.304 6.028C8.59467 6.27067 7.97867 6.65333 7.456 7.176C6.952 7.68 6.55067 8.33333 6.252 9.136C5.95333 9.92 5.804 10.8627 5.804 11.964C5.804 13.0653 5.95333 14.0173 6.252 14.82C6.55067 15.604 6.952 16.2573 7.456 16.78C7.97867 17.284 8.59467 17.6573 9.304 17.9C10.0133 18.1427 10.788 18.264 11.628 18.264C12.3187 18.264 12.9533 18.208 13.532 18.096C14.1293 17.984 14.6427 17.8067 15.072 17.564C15.5013 17.3027 15.8373 16.9667 16.08 16.556C16.3413 16.1453 16.4907 15.6413 16.528 15.044H13.196L11.516 15.324C11.4973 14.8013 11.4693 14.3253 11.432 13.896C11.3947 13.448 11.348 13.0187 11.292 12.608C11.236 12.1787 11.152 11.7493 11.04 11.32C10.9467 10.8907 10.8253 10.4053 10.676 9.864L13.476 10.144H22.24V14.092ZM36.6698 13.196C36.2965 12.6547 35.8952 12.2907 35.4658 12.104C35.0365 11.9173 34.5512 11.824 34.0098 11.824C32.9085 11.824 32.0125 12.1227 31.3218 12.72C30.6498 13.3173 30.3138 14.1853 30.3138 15.324V23.024L28.3538 22.744H26.7018L24.7418 23.024V7.064L26.7018 7.344H28.3538L30.3138 7.064V8.688C30.8552 8.05333 31.5458 7.57733 32.3858 7.26C33.2258 6.94267 34.1125 6.784 35.0458 6.784C36.0352 6.784 36.9592 7.008 37.8178 7.456C38.6765 7.904 39.4045 8.632 40.0018 9.64L38.6858 10.424L37.4258 11.796L36.6698 13.196ZM45.9746 17.2C46.1613 17.592 46.4039 17.9187 46.7026 18.18C47.0013 18.4227 47.3373 18.6187 47.7106 18.768C48.1026 18.8987 48.5226 18.992 48.9706 19.048C49.4186 19.0853 49.8853 19.104 50.3706 19.104C51.2666 19.104 52.2373 18.992 53.2826 18.768C54.3466 18.544 55.3266 18.2173 56.2226 17.788V19.216L56.7546 20.532L57.7906 21.428C57.2679 21.7267 56.6893 21.988 56.0546 22.212C55.4199 22.4547 54.7666 22.6507 54.0946 22.8C53.4226 22.968 52.7413 23.0893 52.0506 23.164C51.3599 23.2573 50.6973 23.304 50.0626 23.304C48.7746 23.304 47.5333 23.1453 46.3386 22.828C45.1626 22.5293 44.1079 22.0533 43.1746 21.4C42.2599 20.7467 41.5226 19.8973 40.9626 18.852C40.4213 17.8067 40.1506 16.5373 40.1506 15.044C40.1506 13.6813 40.3746 12.4867 40.8226 11.46C41.2893 10.4333 41.9146 9.57467 42.6986 8.884C43.5013 8.19333 44.4439 7.67067 45.5266 7.316C46.6279 6.96133 47.8226 6.784 49.1106 6.784C50.1186 6.784 51.1359 6.91467 52.1626 7.176C53.2079 7.43733 54.1413 7.88533 54.9626 8.52C55.8026 9.136 56.4839 9.976 57.0066 11.04C57.5293 12.104 57.7906 13.4387 57.7906 15.044C57.3613 15.3427 56.9506 15.6693 56.5586 16.024C56.1666 16.3787 55.8119 16.7707 55.4946 17.2H45.9746ZM49.2786 10.984C48.4386 10.984 47.7386 11.1613 47.1786 11.516C46.6373 11.8707 46.2266 12.3653 45.9466 13H52.0226C51.9293 12.3653 51.6213 11.8707 51.0986 11.516C50.5759 11.1613 49.9693 10.984 49.2786 10.984ZM65.4746 18.572V23.024L63.5146 22.744H62.0026L60.0426 23.024V0.903999L62.0026 1.184H63.5146L65.4746 0.903999V11.376L70.2346 7.064L71.9146 7.344H74.5186L76.7586 7.064L68.1346 14.932L77.3186 23.024L75.0786 22.744H72.1946L70.5146 23.024L65.4746 18.572ZM77.9801 8.184L79.9401 8.464H81.7321L83.6921 8.184V23.024L81.7321 22.744H79.9401L77.9801 23.024V8.184ZM77.7001 3.676C77.7001 2.76133 77.9895 2.024 78.5681 1.464C79.1655 0.903999 79.9215 0.623999 80.8361 0.623999C81.7508 0.623999 82.4975 0.903999 83.0761 1.464C83.6735 2.024 83.9721 2.76133 83.9721 3.676C83.9721 4.59067 83.6735 5.328 83.0761 5.888C82.4975 6.448 81.7508 6.728 80.8361 6.728C79.9215 6.728 79.1655 6.448 78.5681 5.888C77.9895 5.328 77.7001 4.59067 77.7001 3.676ZM86.9489 7.064L88.9089 7.344H90.5609L92.5209 7.064V8.688C93.0622 8.05333 93.7529 7.57733 94.5929 7.26C95.4329 6.94267 96.3195 6.784 97.2529 6.784C98.3729 6.784 99.3995 6.952 100.333 7.288C101.266 7.624 102.069 8.13733 102.741 8.828C103.413 9.5 103.936 10.3587 104.309 11.404C104.701 12.4493 104.897 13.6813 104.897 15.1V23.024L102.937 22.744H101.285L99.3249 23.024V15.044C99.3249 13.9053 99.0449 13.084 98.4849 12.58C97.9249 12.076 97.1689 11.824 96.2169 11.824C95.1155 11.824 94.2195 12.1227 93.5289 12.72C92.8569 13.3173 92.5209 14.1853 92.5209 15.324V23.024L90.5609 22.744H88.9089L86.9489 23.024V7.064ZM120.045 21.204C119.429 21.708 118.729 22.0907 117.945 22.352C117.18 22.6133 116.368 22.744 115.509 22.744C114.501 22.744 113.512 22.576 112.541 22.24C111.57 21.9227 110.702 21.428 109.937 20.756C109.172 20.1027 108.556 19.2813 108.089 18.292C107.622 17.284 107.389 16.108 107.389 14.764C107.389 13.42 107.622 12.2533 108.089 11.264C108.556 10.256 109.172 9.42533 109.937 8.772C110.702 8.1 111.57 7.60533 112.541 7.288C113.512 6.952 114.501 6.784 115.509 6.784C116.368 6.784 117.18 6.91467 117.945 7.176C118.729 7.43733 119.429 7.82 120.045 8.324V7.064L122.005 7.344H123.657L125.617 7.064V22.1C125.617 23.388 125.346 24.508 124.805 25.46C124.282 26.412 123.582 27.2053 122.705 27.84C121.846 28.4747 120.848 28.9507 119.709 29.268C118.589 29.5853 117.441 29.744 116.265 29.744C114.716 29.744 113.204 29.492 111.729 28.988C110.254 28.484 109.022 27.784 108.033 26.888L108.985 25.796L109.909 24.172L110.441 22.716C111.094 23.388 111.953 23.8827 113.017 24.2C114.1 24.536 115.164 24.704 116.209 24.704C117.404 24.704 118.337 24.48 119.009 24.032C119.7 23.6027 120.045 22.9587 120.045 22.1V21.204ZM112.961 14.764C112.961 15.66 113.297 16.3787 113.969 16.92C114.641 17.4427 115.49 17.704 116.517 17.704C117.002 17.704 117.46 17.6387 117.889 17.508C118.318 17.3773 118.692 17.1907 119.009 16.948C119.326 16.6867 119.578 16.3787 119.765 16.024C119.952 15.6507 120.045 15.2307 120.045 14.764C120.045 14.2973 119.952 13.8867 119.765 13.532C119.578 13.1587 119.326 12.8507 119.009 12.608C118.692 12.3467 118.318 12.1507 117.889 12.02C117.46 11.8893 117.002 11.824 116.517 11.824C115.49 11.824 114.641 12.0947 113.969 12.636C113.297 13.1587 112.961 13.868 112.961 14.764Z" fill="#0D615C"/>
</svg>
