<svg width="100" height="100" viewBox="0 0 100 100" fill="none" xmlns="http://www.w3.org/2000/svg">
<path d="M40.8397 22C44.6887 15.3334 54.3113 15.3333 58.1603 22L81.1099 61.75C84.9589 68.4167 80.1477 76.75 72.4497 76.75H26.5503C18.8523 76.75 14.0411 68.4167 17.8901 61.75L40.8397 22Z" fill="url(#paint0_linear_2725_3580)"/>
<path d="M43.4378 23.5C46.1321 18.8333 52.8679 18.8333 55.5622 23.5L78.5118 63.25C81.2061 67.9167 77.8383 73.75 72.4497 73.75H26.5503C21.1617 73.75 17.7939 67.9167 20.4881 63.25L43.4378 23.5Z" stroke="white" stroke-opacity="0.3" stroke-width="6"/>
<path opacity="0.6" d="M25.7622 65.4896L32.274 54.3653C33.3045 52.6049 35.2302 53.2788 35.0498 55.3107C34.8651 57.3905 34.888 59.4701 35.5 61C35.9395 62.0988 36.4837 63.0044 37.1006 63.7646C38.4586 65.4379 37.8369 68.5 35.6818 68.5H27.4882C25.9433 68.5 24.9817 66.8229 25.7622 65.4896Z" fill="white"/>
<path opacity="0.6" d="M36 50L37 48" stroke="white" stroke-width="2" stroke-linecap="round"/>
<defs>
<linearGradient id="paint0_linear_2725_3580" x1="49.5" y1="7" x2="49.5" y2="100" gradientUnits="userSpaceOnUse">
<stop stop-color="#10BF8F"/>
<stop offset="1" stop-color="#048965"/>
</linearGradient>
</defs>
</svg>
