<svg width="100" height="100" viewBox="0 0 100 100" fill="none" xmlns="http://www.w3.org/2000/svg">
<path d="M43.6222 7.27051C47.127 4.72407 51.873 4.72407 55.3779 7.27051L87.8463 30.8602C91.3512 33.4066 92.8177 37.9203 91.479 42.0405L79.0772 80.2095C77.7384 84.3297 73.8989 87.1193 69.5666 87.1193H29.4334C25.1011 87.1193 21.2616 84.3297 19.9228 80.2095L7.52101 42.0405C6.18227 37.9203 7.64885 33.4066 11.1537 30.8602L43.6222 7.27051Z" fill="url(#paint0_linear_2597_1008)"/>
<path d="M45.3855 9.69756C47.8389 7.91505 51.1611 7.91505 53.6145 9.69756L86.0829 33.2873C88.5363 35.0698 89.5629 38.2293 88.6258 41.1135L76.224 79.2824C75.2869 82.1666 72.5992 84.1193 69.5666 84.1193H29.4334C26.4008 84.1193 23.7131 82.1666 22.776 79.2824L10.3742 41.1135C9.43706 38.2293 10.4637 35.0698 12.9171 33.2873L45.3855 9.69756Z" stroke="white" stroke-opacity="0.5" stroke-width="6"/>
<path opacity="0.6" d="M41.9999 23.2724L44.0791 21.463" stroke="white" stroke-width="4" stroke-linecap="round"/>
<path opacity="0.6" d="M20.2078 38.3221L35.5581 26.6558C37.275 25.351 39.3759 27.2096 38.2683 29.0598C34.609 35.1722 30.3078 42.4034 29 46C27.8874 49.0597 26.7821 53.8491 26.12 58.2213C25.9475 59.3602 23.8732 59.5773 23.5422 58.4739L18.7968 42.6561C18.3176 41.0585 18.8799 39.3313 20.2078 38.3221Z" fill="white"/>
<path opacity="0.6" d="M70.4731 76.7384L74.4499 66.1335C74.8673 65.0205 73.4677 64.3211 72.8318 65.3254C70.6986 68.6943 68.6248 71.8752 67.5 73C66.0315 74.4685 63.6827 75.4969 61.1185 76.2699C59.9592 76.6194 60.1511 78.2592 61.3615 78.2273L68.6531 78.0354C69.4673 78.014 70.1871 77.501 70.4731 76.7384Z" fill="white"/>
<defs>
<linearGradient id="paint0_linear_2597_1008" x1="49.5" y1="3" x2="49.5" y2="96" gradientUnits="userSpaceOnUse">
<stop stop-color="#A371E3"/>
<stop offset="1" stop-color="#4A2D9B"/>
</linearGradient>
</defs>
</svg>
