<svg width="100" height="100" viewBox="0 0 100 100" fill="none" xmlns="http://www.w3.org/2000/svg">
<path d="M42.4289 10.0711C46.3342 6.16582 52.6658 6.16583 56.5711 10.0711L88.9289 42.4289C92.8342 46.3342 92.8342 52.6658 88.9289 56.5711L56.5711 88.9289C52.6658 92.8342 46.3342 92.8342 42.4289 88.9289L10.0711 56.5711C6.16582 52.6658 6.16583 46.3342 10.0711 42.4289L42.4289 10.0711Z" fill="url(#paint0_linear_2597_1007)"/>
<path d="M44.5503 12.1924C47.2839 9.45872 51.7161 9.45872 54.4497 12.1924L86.8076 44.5503C89.5413 47.2839 89.5413 51.7161 86.8076 54.4497L54.4497 86.8076C51.7161 89.5413 47.2839 89.5413 44.5503 86.8076L12.1924 54.4497C9.45872 51.7161 9.45872 47.2839 12.1924 44.5503L44.5503 12.1924Z" stroke="white" stroke-opacity="0.5" stroke-width="6"/>
<path opacity="0.6" d="M30.2852 36.7148L19.0844 47.9156C17.9274 49.0726 17.911 50.9435 19.0475 52.1207L24.8756 58.1568C26.3547 59.6888 29.2399 58.0436 29.0154 55.926C28.8563 54.4243 28.8234 52.9129 29 51.5C29.2675 49.3599 31.3956 44.2142 33.6998 39.1259C34.6356 37.0591 31.8895 35.1105 30.2852 36.7148Z" fill="white"/>
<path opacity="0.6" d="M36.0001 33.9572L37.3902 32.2058" stroke="white" stroke-width="4" stroke-linecap="round"/>
<defs>
<linearGradient id="paint0_linear_2597_1007" x1="49.5" y1="3" x2="49.5" y2="96" gradientUnits="userSpaceOnUse">
<stop stop-color="#1060BF"/>
<stop offset="1" stop-color="#13457F"/>
</linearGradient>
</defs>
</svg>
