<svg width="100" height="100" viewBox="0 0 100 100" fill="none" xmlns="http://www.w3.org/2000/svg">
<path d="M44.5 5.88675C47.594 4.10042 51.406 4.10042 54.5 5.88675L84.7702 23.3632C87.8642 25.1496 89.7702 28.4508 89.7702 32.0235V66.9765C89.7702 70.5491 87.8642 73.8504 84.7702 75.6367L54.5 93.1133C51.406 94.8996 47.594 94.8996 44.5 93.1133L14.2298 75.6367C11.1358 73.8504 9.22982 70.5492 9.22982 66.9765V32.0235C9.22982 28.4508 11.1358 25.1496 14.2298 23.3632L44.5 5.88675Z" fill="url(#paint0_linear_2597_1009)"/>
<path d="M46 8.48483C48.1658 7.2344 50.8342 7.2344 53 8.48483L83.2702 25.9613C85.436 27.2118 86.7702 29.5226 86.7702 32.0235V66.9765C86.7702 69.4774 85.436 71.7882 83.2702 73.0387L53 90.5152C50.8342 91.7656 48.1658 91.7656 46 90.5152L15.7298 73.0387C13.564 71.7882 12.2298 69.4774 12.2298 66.9765V32.0235C12.2298 29.5226 13.564 27.2118 15.7298 25.9613L46 8.48483Z" stroke="white" stroke-opacity="0.5" stroke-width="6"/>
<path opacity="0.6" d="M42.0001 21.1353L44.3031 19.6209" stroke="white" stroke-width="4" stroke-linecap="round"/>
<path opacity="0.6" d="M20.9498 32.414L34.811 23.8613C36.679 22.7087 39.0903 25.1894 37.9333 27.0547C34.3084 32.8986 30.2234 39.7993 28.5 43C26.8197 46.1205 24.6353 54.0785 22.8327 60.7368C22.2596 62.8539 20 62.5223 20 60.3289V34.116C20 33.4224 20.3594 32.7782 20.9498 32.414Z" fill="white"/>
<path opacity="0.6" d="M79.5502 67.586L68.6028 74.3408C66.642 75.5507 64.5738 73.0733 66.076 71.3264C69.2122 67.6797 72.1537 64.0003 73.5 61.5C74.7425 59.1925 75.9653 56.1104 77.0724 53.0752C77.8239 51.0146 80.5 51.4777 80.5 53.671L80.5 65.884C80.5 66.5776 80.1406 67.2218 79.5502 67.586Z" fill="white"/>
<defs>
<linearGradient id="paint0_linear_2597_1009" x1="49.5" y1="3" x2="49.5" y2="96" gradientUnits="userSpaceOnUse">
<stop stop-color="#CF5E9B"/>
<stop offset="1" stop-color="#FF008A"/>
</linearGradient>
</defs>
</svg>
