<svg width="52" height="52" viewBox="0 0 52 52" fill="none" xmlns="http://www.w3.org/2000/svg">
<rect width="52" height="52" rx="26" fill="#D2DBE0"/>
<path fill-rule="evenodd" clip-rule="evenodd" d="M36 22C36 24.6522 34.9464 27.1957 33.0711 29.0711C31.1957 30.9464 28.6522 32 26 32C23.3478 32 20.8043 30.9464 18.9289 29.0711C17.0536 27.1957 16 24.6522 16 22C16 19.3478 17.0536 16.8043 18.9289 14.9289C20.8043 13.0536 23.3478 12 26 12C28.6522 12 31.1957 13.0536 33.0711 14.9289C34.9464 16.8043 36 19.3478 36 22ZM26 33.4286C15 33.4286 6 39.1429 6 44.8571C6 46.7515 6.75255 48.5684 8.09209 49.9079C9.43164 51.2474 11.2485 52 13.1429 52H38.8571C40.7515 52 42.5684 51.2474 43.9079 49.9079C45.2474 48.5684 46 46.7515 46 44.8571C46 39.1429 37 33.4286 26 33.4286Z" fill="#0D615C"/>
</svg>
