<svg width="45" height="44" viewBox="0 0 45 44" fill="none" xmlns="http://www.w3.org/2000/svg">
<path fill-rule="evenodd" clip-rule="evenodd" d="M22.8296 34C22.5696 34 22.3162 33.922 22.1046 33.777C21.7246 33.519 12.7935 27.3281 12.8297 19.5941C12.8297 14.3068 17.3159 10 22.8296 10C28.3433 10 32.8295 14.3068 32.8295 19.6001C32.8657 27.3281 23.9346 33.519 23.5546 33.777C23.343 33.922 23.0896 34 22.8296 34ZM27.8296 20C27.8296 22.7575 25.5871 25 22.8296 25C20.0721 25 17.8296 22.7575 17.8296 20C17.8296 17.2425 20.0721 15 22.8296 15C25.5871 15 27.8296 17.2425 27.8296 20ZM25.3296 20C25.3296 18.6213 24.2083 17.5 22.8296 17.5C21.4508 17.5 20.3296 18.6213 20.3296 20C20.3296 21.3787 21.4508 22.5 22.8296 22.5C24.2083 22.5 25.3296 21.3787 25.3296 20Z" fill="#252829"/>
</svg>
