<svg width="44" height="44" viewBox="0 0 44 44" fill="none" xmlns="http://www.w3.org/2000/svg">
<path fill-rule="evenodd" clip-rule="evenodd" d="M24.5 17.25C24.5 18.0456 24.1839 18.8087 23.6213 19.3713C23.0587 19.9339 22.2956 20.25 21.5 20.25C20.7044 20.25 19.9413 19.9339 19.3787 19.3713C18.8161 18.8087 18.5 18.0456 18.5 17.25C18.5 16.4544 18.8161 15.6913 19.3787 15.1287C19.9413 14.5661 20.7044 14.25 21.5 14.25C22.2956 14.25 23.0587 14.5661 23.6213 15.1287C24.1839 15.6913 24.5 16.4544 24.5 17.25ZM26.75 17.25C26.75 18.6424 26.1969 19.9777 25.2123 20.9623C24.2277 21.9469 22.8924 22.5 21.5 22.5C20.1076 22.5 18.7723 21.9469 17.7877 20.9623C16.8031 19.9777 16.25 18.6424 16.25 17.25C16.25 15.8576 16.8031 14.5223 17.7877 13.5377C18.7723 12.5531 20.1076 12 21.5 12C22.8924 12 24.2277 12.5531 25.2123 13.5377C26.1969 14.5223 26.75 15.8576 26.75 17.25ZM13.25 29.25C13.25 28.944 13.58 28.0365 15.23 27.0615C16.757 26.16 18.98 25.5 21.5 25.5C24.02 25.5 26.243 26.16 27.77 27.0615C29.42 28.0365 29.75 28.944 29.75 29.25C29.75 29.6478 29.592 30.0294 29.3107 30.3107C29.0294 30.592 28.6478 30.75 28.25 30.75H14.75C14.3522 30.75 13.9706 30.592 13.6893 30.3107C13.408 30.0294 13.25 29.6478 13.25 29.25ZM21.5 23.25C15.725 23.25 11 26.25 11 29.25C11 30.2446 11.3951 31.1984 12.0983 31.9016C12.8016 32.6049 13.7554 33 14.75 33H28.25C29.2446 33 30.1984 32.6049 30.9016 31.9016C31.6049 31.1984 32 30.2446 32 29.25C32 26.25 27.275 23.25 21.5 23.25Z" fill="#868C90"/>
</svg>
