<svg width="44" height="44" viewBox="0 0 44 44" fill="none" xmlns="http://www.w3.org/2000/svg">
<path fill-rule="evenodd" clip-rule="evenodd" d="M26.75 17.25C26.75 18.6424 26.1969 19.9777 25.2123 20.9623C24.2277 21.9469 22.8924 22.5 21.5 22.5C20.1076 22.5 18.7723 21.9469 17.7877 20.9623C16.8031 19.9777 16.25 18.6424 16.25 17.25C16.25 15.8576 16.8031 14.5223 17.7877 13.5377C18.7723 12.5531 20.1076 12 21.5 12C22.8924 12 24.2277 12.5531 25.2123 13.5377C26.1969 14.5223 26.75 15.8576 26.75 17.25ZM21.5 23.25C15.725 23.25 11 26.25 11 29.25C11 30.2446 11.3951 31.1984 12.0983 31.9016C12.8016 32.6049 13.7554 33 14.75 33H28.25C29.2446 33 30.1984 32.6049 30.9016 31.9016C31.6049 31.1984 32 30.2446 32 29.25C32 26.25 27.275 23.25 21.5 23.25Z" fill="#252829"/>
</svg>
