<svg width="44" height="44" viewBox="0 0 44 44" fill="none" xmlns="http://www.w3.org/2000/svg">
<path d="M20.1971 13.0219C18.9522 12.8864 17.294 13.4038 16.093 13.9027C15.4079 14.1873 15 14.8748 15 15.6167V23.1157C16.1024 22.6143 18.6852 21.6114 20.1971 21.6114C22.0869 21.6114 25.3941 23 27.5202 23C28.1933 23 28.7013 22.4543 28.7013 21.7811V16.1883C28.7013 15.2065 28.502 14.4106 27.5202 14.4106C25.1579 14.4106 22.3231 13.2534 20.1971 13.0219Z" fill="#252829"/>
<path d="M15 30.5V23.1157M15 23.1157V15.6167C15 14.8748 15.4079 14.1873 16.093 13.9027C17.294 13.4038 18.9522 12.8864 20.1971 13.0219C22.3231 13.2534 25.1579 14.4106 27.5202 14.4106V14.4106C28.502 14.4106 28.7013 15.2065 28.7013 16.1883V21.7811C28.7013 22.4543 28.1933 23 27.5202 23V23C25.3941 23 22.0869 21.6114 20.1971 21.6114C18.6852 21.6114 16.1024 22.6143 15 23.1157Z" stroke="#252829" stroke-width="2.5" stroke-linecap="round"/>
</svg>
