<svg width="44" height="44" viewBox="0 0 44 44" fill="none" xmlns="http://www.w3.org/2000/svg">
<path d="M22 25C24.7575 25 27 22.7575 27 20C27 17.2425 24.7575 15 22 15C19.2425 15 17 17.2425 17 20C17 22.7575 19.2425 25 22 25ZM22 17.5C23.3788 17.5 24.5 18.6213 24.5 20C24.5 21.3788 23.3788 22.5 22 22.5C20.6213 22.5 19.5 21.3788 19.5 20C19.5 18.6213 20.6213 17.5 22 17.5Z" fill="#868C90"/>
<path d="M21.275 33.777C21.4866 33.922 21.74 34 22 34C22.26 34 22.5134 33.922 22.725 33.777C23.105 33.519 32.0361 27.3281 31.9999 19.6001C31.9999 14.3068 27.5137 10 22 10C16.4863 10 12.0001 14.3068 12.0001 19.5941C11.9639 27.3281 20.895 33.519 21.275 33.777ZM22 12.4C26.1362 12.4 29.4999 15.6292 29.4999 19.6061C29.5262 24.9317 24.015 29.7138 22 31.2822C19.9863 29.7126 14.4738 24.9293 14.5001 19.6001C14.5001 15.6292 17.8638 12.4 22 12.4Z" fill="#868C90"/>
</svg>
