<svg width="41" height="40" viewBox="0 0 41 40" fill="none" xmlns="http://www.w3.org/2000/svg">
<path d="M12.55 34V30.4706H9C8.44771 30.4706 8 30.0229 8 29.4706V20.7647C8 18.8235 9.3 16.5588 11.25 14.9412C12.7856 13.6673 14.7244 13.1959 15.479 13.0531C15.6874 13.0137 15.8999 13.0555 16.0853 13.1585L20.1053 15.392C20.3857 15.5478 20.7238 15.5596 21.0144 15.4238L25.939 13.122C26.1095 13.0423 26.2979 13.0119 26.483 13.046C27.2086 13.1799 29.1879 13.6453 30.75 14.9412C32.7 16.5588 34 18.8235 34 20.7647V29.4706C34 30.0229 33.5523 30.4706 33 30.4706H29.45V34C29.45 34.5523 29.0023 35 28.45 35H13.55C12.9977 35 12.55 34.5523 12.55 34Z" fill="#A9B0B5"/>
<path d="M10.2952 11.5527C10.7973 12.6752 12.258 13.0198 13.3925 12.5455C13.9427 12.3156 14.458 12.1575 14.8712 12.0515C15.4663 11.8988 16.0781 12.11 16.5139 12.543L19.5904 15.5996C20.3704 16.3745 21.6296 16.3745 22.4096 15.5996L25.4861 12.543C25.9219 12.11 26.5337 11.8988 27.1288 12.0515C27.542 12.1575 28.0573 12.3156 28.6075 12.5455C29.742 13.0198 31.2027 12.6752 31.7048 11.5527C31.8947 11.1283 31.9186 10.6481 31.772 10.2069L31.161 8.36908C30.8893 7.55161 30.1246 7 29.2631 7H12.7369C11.8754 7 11.1107 7.55161 10.839 8.36908L10.228 10.2069C10.0814 10.6481 10.1053 11.1283 10.2952 11.5527Z" fill="#A9B0B5" stroke="#F4F6F7" stroke-width="2" stroke-linecap="round" stroke-linejoin="round"/>
</svg>
