<svg width="32" height="32" viewBox="0 0 32 32" fill="none" xmlns="http://www.w3.org/2000/svg">
<path d="M6 15.7941C6 13.3398 7.80269 10.3931 9.13508 8.33672C9.53601 7.71794 10.464 7.71794 10.8649 8.33672C12.1973 10.3931 14 13.3398 14 15.7941C14 17.7059 12.8 20 10 20C7.2 20 6 17.7059 6 15.7941Z" fill="#A9B0B5" stroke="#A9B0B5" stroke-width="2" stroke-linecap="round"/>
<path d="M17 23.7647C17 22.0134 18.1633 19.9363 19.1294 18.3822C19.5238 17.7476 20.4762 17.7476 20.8706 18.3822C21.8367 19.9363 23 22.0134 23 23.7647C23 25.2353 22.1 27 20 27C17.9 27 17 25.2353 17 23.7647Z" fill="#A9B0B5" stroke="#A9B0B5" stroke-width="2" stroke-linecap="round"/>
<path d="M22 10.7353C22 9.41969 22.8932 7.84138 23.5585 6.73481C23.7559 6.4065 24.2441 6.4065 24.4415 6.73481C25.1068 7.84138 26 9.41969 26 10.7353C26 11.7647 25.4 13 24 13C22.6 13 22 11.7647 22 10.7353Z" fill="#A9B0B5" stroke="#A9B0B5" stroke-width="2" stroke-linecap="round"/>
</svg>
