<svg width="41" height="40" viewBox="0 0 41 40" fill="none" xmlns="http://www.w3.org/2000/svg">
<path d="M34 10.5C34 9.39543 33.1046 8.5 32 8.5H24.8C23.6954 8.5 22.8 9.39543 22.8 10.5V13.25H34V10.5ZM34 13.25V28.0625C34 28.8603 33.377 29.5 32.6 29.5H30.5H27H15H11.5H8.8C7.253 29.5 6 28.2134 6 26.625V22.3125C6 19.1356 8.506 16.5625 11.6 16.5625H22.8V13.25H34ZM13 20.875V16.5625V20.875ZM17.9 20.875V16.5625V20.875ZM19.3 16.5625H11.6H19.3Z" fill="#A9B0B5"/>
<path d="M22.8 13.25V10.5C22.8 9.39543 23.6954 8.5 24.8 8.5H32C33.1046 8.5 34 9.39543 34 10.5V13.25M22.8 13.25H34M22.8 13.25V16.5625H11.6M34 13.25V28.0625C34 28.8603 33.377 29.5 32.6 29.5H30.5M11.6 16.5625C8.506 16.5625 6 19.1356 6 22.3125V26.625C6 28.2134 7.253 29.5 8.8 29.5H11.5M11.6 16.5625H19.3M13 20.875V16.5625M17.9 20.875V16.5625M11.5 29.5V31.5M11.5 29.5H15M15 29.5V31.5M15 29.5H27M30.5 29.5V31.5M30.5 29.5H27M27 29.5V31.5" stroke="#F4F6F7" stroke-width="2" stroke-miterlimit="2" stroke-linecap="round" stroke-linejoin="round"/>
<path d="M12.5 31L12.5 29.5L9.5 29.5L9.5 31L12.5 31ZM9.5 31.5C9.5 32.3284 10.1716 33 11 33C11.8284 33 12.5 32.3284 12.5 31.5L9.5 31.5ZM9.5 31L9.5 31.5L12.5 31.5L12.5 31L9.5 31Z" fill="#A9B0B5"/>
<path d="M17.5 31L17.5 29.5L14.5 29.5L14.5 31L17.5 31ZM14.5 31.5C14.5 32.3284 15.1716 33 16 33C16.8284 33 17.5 32.3284 17.5 31.5L14.5 31.5ZM14.5 31L14.5 31.5L17.5 31.5L17.5 31L14.5 31Z" fill="#A9B0B5"/>
<path d="M26.5 31L26.5 29.5L23.5 29.5L23.5 31L26.5 31ZM23.5 31.5C23.5 32.3284 24.1716 33 25 33C25.8284 33 26.5 32.3284 26.5 31.5L23.5 31.5ZM23.5 31L23.5 31.5L26.5 31.5L26.5 31L23.5 31Z" fill="#A9B0B5"/>
<path d="M31.5 31L31.5 29.5L28.5 29.5L28.5 31L31.5 31ZM28.5 31.5C28.5 32.3284 29.1716 33 30 33C30.8284 33 31.5 32.3284 31.5 31.5L28.5 31.5ZM28.5 31L28.5 31.5L31.5 31.5L31.5 31L28.5 31Z" fill="#A9B0B5"/>
</svg>
