<svg width="32" height="32" viewBox="0 0 32 32" fill="none" xmlns="http://www.w3.org/2000/svg">
<circle cx="16" cy="16" r="4" fill="#A9B0B5" stroke="#A9B0B5" stroke-width="2"/>
<path d="M15.7953 6L15.7953 11M17.7953 7.5L16.2424 8.27641C15.9609 8.41716 15.6296 8.41718 15.3481 8.27644L13.7949 7.5" stroke="#A9B0B5" stroke-width="2" stroke-linecap="round"/>
<path d="M15.7946 26L15.7946 21M13.7946 24.5L15.3474 23.7236C15.6289 23.5828 15.9603 23.5828 16.2418 23.7236L17.7949 24.5" stroke="#A9B0B5" stroke-width="2" stroke-linecap="round"/>
<path d="M24.4553 11.0004L20.1251 13.5004M24.1562 13.4825L22.7074 12.5259C22.4448 12.3525 22.2791 12.0655 22.2602 11.7514L22.156 10.0181" stroke="#A9B0B5" stroke-width="2" stroke-linecap="round"/>
<path d="M7.13459 20.9996L11.4647 18.4996M7.43363 18.5175L8.88244 19.4741C9.14508 19.6475 9.31077 19.9345 9.32965 20.2486L9.4338 21.9819" stroke="#A9B0B5" stroke-width="2" stroke-linecap="round"/>
<path d="M24.4549 21.0002L20.1248 18.5002M22.1559 21.9822L22.2599 20.2492C22.2787 19.9351 22.4444 19.6481 22.707 19.4747L24.156 18.5178" stroke="#A9B0B5" stroke-width="2" stroke-linecap="round"/>
<path d="M7.13494 10.9998L11.4651 13.4998M9.43398 10.0178L9.32996 11.7508C9.3111 12.0649 9.14544 12.3519 8.8828 12.5253L7.4338 13.4822" stroke="#A9B0B5" stroke-width="2" stroke-linecap="round"/>
</svg>
