<svg width="32" height="32" viewBox="0 0 32 32" fill="none" xmlns="http://www.w3.org/2000/svg">
<path d="M13.1844 1.08516C13.6145 0.953198 14.076 0.975122 14.4921 1.14729C14.9083 1.31945 15.2539 1.63147 15.4715 2.03141L15.5442 2.18045L16.1949 3.65183C16.392 4.0985 16.4559 4.59424 16.3787 5.07753C16.3014 5.56083 16.0865 6.01042 15.7605 6.37053L15.6298 6.50256L14.6046 7.47581C14.4198 7.65386 14.5584 8.34303 15.2268 9.52134C15.8283 10.5816 16.3178 11.0767 16.5586 11.1037H16.6008L16.6529 11.0937L18.6678 10.4666C18.9386 10.3821 19.2276 10.3787 19.5002 10.4569C19.7728 10.5352 20.0175 10.6917 20.205 10.9077L20.2945 11.0227L21.6282 12.9032C21.8896 13.2718 22.0199 13.72 21.9975 14.174C21.9752 14.628 21.8016 15.0607 21.5054 15.4009L21.3855 15.5269L20.8527 16.041C20.3744 16.5021 19.776 16.8136 19.1287 16.9386C18.4814 17.0636 17.8124 16.9968 17.2014 16.7462C15.2995 15.966 13.5716 14.1835 12.002 11.4168C10.4294 8.64311 9.77578 6.22549 10.0677 4.15496C10.156 3.52906 10.4093 2.9392 10.8006 2.44801C11.1918 1.95683 11.7065 1.58265 12.29 1.36524L12.4797 1.30122L13.1844 1.08516Z" fill="#F74440"/>
<path d="M9.32031 23.9414C9.25 23.2734 8.71094 22.875 7.85547 22.875C6.96484 22.875 6.47266 23.2852 6.46094 23.8477C6.44922 24.457 7.09375 24.7383 7.82031 24.9023L8.58203 25.0898C10.0352 25.418 11.125 26.1562 11.125 27.5742C11.125 29.1328 9.90625 30.1172 7.84375 30.1172C5.79297 30.1172 4.48047 29.168 4.43359 27.3516H6.14453C6.20312 28.207 6.88281 28.6406 7.82031 28.6406C8.74609 28.6406 9.34375 28.207 9.34375 27.5742C9.34375 27 8.81641 26.7305 7.89062 26.4961L6.96484 26.2734C5.53516 25.9219 4.65625 25.207 4.65625 23.9648C4.65625 22.418 6.01562 21.3984 7.86719 21.3984C9.74219 21.3984 10.9844 22.4414 11.0078 23.9414H9.32031ZM20.043 25.7578C20.043 28.5234 18.3203 30.1172 16.082 30.1172C13.8203 30.1172 12.1094 28.5117 12.1094 25.7578C12.1094 22.9922 13.8203 21.3984 16.082 21.3984C18.3203 21.3984 20.043 22.9922 20.043 25.7578ZM18.25 25.7578C18.25 23.9414 17.3945 22.957 16.082 22.957C14.7695 22.957 13.9023 23.9414 13.9023 25.7578C13.9023 27.5742 14.7695 28.5586 16.082 28.5586C17.3945 28.5586 18.25 27.5742 18.25 25.7578ZM25.9141 23.9414C25.8438 23.2734 25.3047 22.875 24.4492 22.875C23.5586 22.875 23.0664 23.2852 23.0547 23.8477C23.043 24.457 23.6875 24.7383 24.4141 24.9023L25.1758 25.0898C26.6289 25.418 27.7188 26.1562 27.7188 27.5742C27.7188 29.1328 26.5 30.1172 24.4375 30.1172C22.3867 30.1172 21.0742 29.168 21.0273 27.3516H22.7383C22.7969 28.207 23.4766 28.6406 24.4141 28.6406C25.3398 28.6406 25.9375 28.207 25.9375 27.5742C25.9375 27 25.4102 26.7305 24.4844 26.4961L23.5586 26.2734C22.1289 25.9219 21.25 25.207 21.25 23.9648C21.25 22.418 22.6094 21.3984 24.4609 21.3984C26.3359 21.3984 27.5781 22.4414 27.6016 23.9414H25.9141Z" fill="#F74440"/>
</svg>
