<svg width="41" height="40" viewBox="0 0 41 40" fill="none" xmlns="http://www.w3.org/2000/svg">
<path d="M17.6347 9.57434L18.4781 14H21.6084L22.0783 10.9886C22.2513 9.88011 23.1128 9.00595 24.2186 8.81689L25.4065 8.61378C25.8408 8.53952 26.2874 8.59285 26.692 8.7673L27.2908 9.02547C27.9587 9.31346 28.3914 9.97117 28.3914 10.6986C28.3914 11.4173 28.9755 12 29.6943 12C30.4146 12 31 11.416 31 10.6957V9.50697C31 8.14536 30.2082 6.90805 28.9718 6.33769L27.8036 5.79881C26.6819 5.28138 25.4188 5.15656 24.2175 5.44447L19.7546 6.51411C19.3879 6.602 19.0011 6.51657 18.7055 6.28239L18.0253 5.74351C17.4828 5.31368 16.7098 5.33609 16.1931 5.79665C15.5575 6.3631 15.5575 7.3569 16.1931 7.92335L17.2155 8.83462C17.4328 9.02834 17.5802 9.28835 17.6347 9.57434Z" fill="#A9B0B5"/>
<path d="M18.4781 16V35.4349C18.4781 36.2993 19.1789 37 20.0433 37C20.9077 37 21.6084 36.2993 21.6084 35.4349V16H18.4781Z" fill="#A9B0B5"/>
</svg>
