<svg width="41" height="40" viewBox="0 0 41 40" fill="none" xmlns="http://www.w3.org/2000/svg">
<path d="M23.8 9C23.8 11.3229 24.5098 13.5886 25.83 15.4814L25.9 15.5814C27.2655 17.5399 27.9995 19.8836 28 22.2871V31.1429C28 31.9006 27.705 32.6273 27.1799 33.1632C26.6548 33.699 25.9426 34 25.2 34H16.8C16.0574 34 15.3452 33.699 14.8201 33.1632C14.295 32.6273 14 31.9006 14 31.1429V22.2857C14 19.8829 14.7336 17.54 16.1 15.5814L16.17 15.4814C17.4907 13.5889 18.2003 11.3233 18.2 9" fill="#A9B0B5"/>
<path d="M23.8 9C23.8 11.3229 24.5098 13.5886 25.83 15.4814L25.9 15.5814C27.2655 17.5399 27.9995 19.8836 28 22.2871V31.1429C28 31.9006 27.705 32.6273 27.1799 33.1632C26.6548 33.699 25.9426 34 25.2 34H16.8C16.0574 34 15.3452 33.699 14.8201 33.1632C14.295 32.6273 14 31.9006 14 31.1429V22.2857C14 19.8829 14.7336 17.54 16.1 15.5814L16.17 15.4814C17.4907 13.5889 18.2003 11.3233 18.2 9" stroke="#F4F6F7" stroke-width="2" stroke-linecap="round" stroke-linejoin="round"/>
<path d="M18 11H24V8.33333C24 7.97971 23.842 7.64057 23.5607 7.39052C23.2794 7.14048 22.8978 7 22.5 7H19.5C19.1022 7 18.7206 7.14048 18.4393 7.39052C18.158 7.64057 18 7.97971 18 8.33333V11Z" fill="#A9B0B5" stroke="#F4F6F7" stroke-linecap="round" stroke-linejoin="round"/>
<path d="M14 24.8026C14.56 24.6307 15.044 24.3532 15.4 24C15.718 23.6837 16.1392 23.4274 16.627 23.2532C17.1148 23.0791 17.6547 22.9924 18.2 23.0005C18.7453 22.9924 19.2852 23.0791 19.773 23.2532C20.2608 23.4274 20.682 23.6837 21 24C21.318 24.3163 21.7392 24.5726 22.227 24.7468C22.7148 24.9209 23.2547 25.0076 23.8 24.9995C24.3453 25.0076 24.8852 24.9209 25.373 24.7468C25.8608 24.5726 26.282 24.3163 26.6 24C26.9557 23.646 27.4397 23.3679 28 23.1954" stroke="#F4F6F7" stroke-width="2" stroke-linecap="round" stroke-linejoin="round"/>
</svg>
